<?xml version="1.0" encoding="UTF-8"?>
<svg id="Capa_2" data-name="Capa 2" xmlns="http://www.w3.org/2000/svg" xmlns:xlink="http://www.w3.org/1999/xlink" viewBox="0 0 1200 699.4">
  <defs>
    <style>
      .cls-1 {
        fill: url(#linear-gradient-75);
      }

      .cls-2 {
        fill: url(#linear-gradient-51);
      }

      .cls-3 {
        opacity: .7;
      }

      .cls-4, .cls-5, .cls-6 {
        fill: #fff;
      }

      .cls-7 {
        fill: url(#Degradado_sin_nombre_21);
      }

      .cls-8 {
        fill: url(#linear-gradient-17);
      }

      .cls-9 {
        fill: url(#linear-gradient-87);
      }

      .cls-10 {
        fill: url(#linear-gradient-93);
      }

      .cls-11 {
        fill: url(#linear-gradient-92);
      }

      .cls-12 {
        fill: url(#linear-gradient-80);
      }

      .cls-13 {
        fill: url(#Degradado_sin_nombre_44);
      }

      .cls-14 {
        fill: url(#linear-gradient-43);
      }

      .cls-15 {
        fill: url(#linear-gradient-58);
      }

      .cls-16 {
        fill: url(#linear-gradient-10);
      }

      .cls-16, .cls-17, .cls-18, .cls-19 {
        opacity: .3;
      }

      .cls-20 {
        fill: url(#linear-gradient-69);
      }

      .cls-21 {
        fill: url(#linear-gradient-81);
      }

      .cls-22 {
        fill: url(#linear-gradient-18);
      }

      .cls-23, .cls-24, .cls-25 {
        opacity: .6;
      }

      .cls-26 {
        fill: url(#linear-gradient-56);
      }

      .cls-27 {
        fill: url(#linear-gradient-40);
      }

      .cls-28 {
        fill: url(#linear-gradient-52);
      }

      .cls-29 {
        fill: url(#linear-gradient-28);
      }

      .cls-30 {
        fill: url(#linear-gradient-36);
      }

      .cls-31 {
        fill: url(#linear-gradient-78);
      }

      .cls-32 {
        fill: url(#linear-gradient-20);
      }

      .cls-33 {
        fill: url(#linear-gradient-53);
      }

      .cls-17 {
        fill: url(#linear-gradient-6);
      }

      .cls-34 {
        fill: url(#linear-gradient-91);
      }

      .cls-35 {
        fill: url(#linear-gradient-60);
      }

      .cls-36 {
        fill: url(#linear-gradient-84);
      }

      .cls-5, .cls-37, .cls-38 {
        opacity: .5;
      }

      .cls-39 {
        fill: url(#linear-gradient-35);
      }

      .cls-40 {
        fill: url(#linear-gradient-48);
      }

      .cls-41 {
        fill: url(#linear-gradient-32);
      }

      .cls-42 {
        fill: url(#linear-gradient-97);
      }

      .cls-43 {
        fill: #2a6fae;
      }

      .cls-44 {
        fill: #24286c;
      }

      .cls-45 {
        fill: url(#linear-gradient-11);
      }

      .cls-46 {
        fill: url(#linear-gradient-50);
      }

      .cls-47 {
        fill: url(#Degradado_sin_nombre_38);
      }

      .cls-48 {
        fill: url(#linear-gradient-63);
      }

      .cls-49 {
        fill: url(#linear-gradient-67);
      }

      .cls-50 {
        fill: #1f5aa9;
      }

      .cls-51 {
        fill: url(#linear-gradient-95);
      }

      .cls-18 {
        fill: url(#linear-gradient-7);
      }

      .cls-52 {
        fill: url(#linear-gradient-86);
      }

      .cls-53 {
        fill: url(#linear-gradient-39);
      }

      .cls-37 {
        fill: url(#linear-gradient);
      }

      .cls-54 {
        fill: url(#linear-gradient-59);
      }

      .cls-6 {
        opacity: .57;
      }

      .cls-55 {
        fill: #222669;
      }

      .cls-56 {
        fill: url(#linear-gradient-49);
      }

      .cls-57 {
        fill: url(#linear-gradient-37);
      }

      .cls-24 {
        fill: url(#linear-gradient-14);
      }

      .cls-58 {
        fill: url(#linear-gradient-82);
      }

      .cls-59 {
        fill: url(#linear-gradient-16);
      }

      .cls-60 {
        fill: url(#Degradado_sin_nombre_14);
      }

      .cls-61 {
        fill: url(#linear-gradient-31);
      }

      .cls-62 {
        fill: url(#linear-gradient-85);
      }

      .cls-63 {
        fill: url(#Degradado_sin_nombre_21-2);
      }

      .cls-64 {
        fill: url(#linear-gradient-61);
      }

      .cls-65 {
        fill: url(#linear-gradient-68);
      }

      .cls-66 {
        fill: url(#linear-gradient-62);
      }

      .cls-67 {
        fill: url(#linear-gradient-41);
      }

      .cls-68 {
        fill: url(#linear-gradient-76);
      }

      .cls-69 {
        fill: url(#linear-gradient-98);
      }

      .cls-25 {
        fill: url(#linear-gradient-15);
      }

      .cls-70 {
        fill: url(#linear-gradient-21);
      }

      .cls-71 {
        fill: url(#linear-gradient-72);
      }

      .cls-38 {
        fill: url(#linear-gradient-2);
      }

      .cls-72 {
        fill: url(#linear-gradient-25);
      }

      .cls-73 {
        fill: url(#linear-gradient-89);
      }

      .cls-74 {
        fill: url(#Degradado_sin_nombre_49);
      }

      .cls-75 {
        fill: url(#linear-gradient-5);
      }

      .cls-76 {
        fill: url(#linear-gradient-64);
      }

      .cls-77 {
        fill: url(#linear-gradient-83);
      }

      .cls-78 {
        fill: url(#linear-gradient-54);
      }

      .cls-79 {
        fill: url(#linear-gradient-45);
      }

      .cls-80 {
        fill: url(#linear-gradient-55);
      }

      .cls-81 {
        fill: url(#Degradado_sin_nombre_44-2);
      }

      .cls-82 {
        fill: url(#linear-gradient-34);
      }

      .cls-83 {
        fill: url(#linear-gradient-65);
      }

      .cls-84 {
        fill: url(#linear-gradient-70);
      }

      .cls-85 {
        fill: url(#linear-gradient-79);
      }

      .cls-86 {
        fill: url(#linear-gradient-88);
      }

      .cls-19 {
        fill: url(#linear-gradient-9);
      }

      .cls-87 {
        fill: url(#linear-gradient-66);
      }

      .cls-88 {
        fill: url(#linear-gradient-96);
      }

      .cls-89 {
        fill: url(#linear-gradient-24);
      }

      .cls-90 {
        fill: url(#linear-gradient-73);
      }

      .cls-91 {
        fill: url(#linear-gradient-100);
      }

      .cls-92 {
        fill: url(#linear-gradient-22);
      }

      .cls-93 {
        fill: url(#linear-gradient-74);
      }

      .cls-94 {
        fill: url(#linear-gradient-42);
      }

      .cls-95 {
        fill: url(#linear-gradient-99);
      }

      .cls-96 {
        fill: url(#linear-gradient-3);
      }

      .cls-97 {
        fill: #eac4f9;
      }

      .cls-98 {
        fill: #7056c1;
      }

      .cls-99 {
        fill: url(#linear-gradient-27);
      }

      .cls-100 {
        fill: url(#linear-gradient-33);
      }

      .cls-101 {
        fill: url(#linear-gradient-38);
      }

      .cls-102 {
        fill: url(#linear-gradient-94);
      }

      .cls-103 {
        fill: url(#linear-gradient-29);
      }

      .cls-104 {
        fill: url(#linear-gradient-30);
      }

      .cls-105 {
        fill: url(#linear-gradient-23);
      }

      .cls-106 {
        fill: url(#linear-gradient-19);
      }

      .cls-107 {
        fill: url(#linear-gradient-71);
      }

      .cls-108 {
        fill: url(#linear-gradient-4);
      }

      .cls-109 {
        fill: url(#linear-gradient-77);
      }

      .cls-110 {
        fill: url(#Degradado_sin_nombre_42);
      }

      .cls-111 {
        fill: url(#linear-gradient-8);
      }

      .cls-112 {
        fill: url(#linear-gradient-90);
      }

      .cls-113 {
        fill: url(#linear-gradient-44);
      }

      .cls-114 {
        fill: url(#linear-gradient-57);
      }

      .cls-115 {
        fill: url(#linear-gradient-47);
      }

      .cls-116 {
        fill: url(#linear-gradient-46);
      }

      .cls-117 {
        fill: url(#linear-gradient-12);
      }

      .cls-118 {
        fill: url(#linear-gradient-13);
      }

      .cls-119 {
        fill: url(#linear-gradient-26);
      }
    </style>
    <linearGradient id="linear-gradient" x1="54.35" y1="830.26" x2="1215.85" y2="-13.21" gradientTransform="translate(-82.44 61.35) rotate(-2.26) scale(1 .96)" gradientUnits="userSpaceOnUse">
      <stop offset="0" stop-color="#a737d5"/>
      <stop offset="1" stop-color="#ef497a"/>
    </linearGradient>
    <linearGradient id="linear-gradient-2" x1="1080.24" y1="183.31" x2="88.54" y2="655.06" gradientTransform="translate(-82.44 61.35) rotate(-2.26) scale(1 .96)" gradientUnits="userSpaceOnUse">
      <stop offset="0" stop-color="#ed539f"/>
      <stop offset="1" stop-color="#a061c2"/>
    </linearGradient>
    <linearGradient id="linear-gradient-3" x1="712.4" y1="-722.01" x2="823.7" y2="-722.01" gradientTransform="translate(51.09 706.55) rotate(36.8)" gradientUnits="userSpaceOnUse">
      <stop offset="0" stop-color="#2b3582"/>
      <stop offset="1" stop-color="#150e42"/>
    </linearGradient>
    <linearGradient id="linear-gradient-4" x1="-1983.31" y1="699.85" x2="-2039.81" y2="422.36" gradientTransform="translate(-891.12 -284.49) rotate(-174.32) scale(1 -1)" gradientUnits="userSpaceOnUse">
      <stop offset="0" stop-color="#233894"/>
      <stop offset="1" stop-color="#dd397a"/>
    </linearGradient>
    <linearGradient id="linear-gradient-5" x1="525.31" y1="113.9" x2="389.29" y2="677.98" gradientTransform="matrix(1, 0, 0, 1, 0, 0)" xlink:href="#linear-gradient"/>
    <linearGradient id="linear-gradient-6" x1="420.6" y1="350.47" x2="515.86" y2="350.47" gradientUnits="userSpaceOnUse">
      <stop offset="0" stop-color="#b37cff"/>
      <stop offset="1" stop-color="#f895e7"/>
    </linearGradient>
    <linearGradient id="linear-gradient-7" x1="347.01" y1="350.16" x2="591.33" y2="350.16" xlink:href="#linear-gradient-6"/>
    <linearGradient id="linear-gradient-8" x1="900.7" y1=".36" x2="792.68" y2="448.42" gradientTransform="matrix(1, 0, 0, 1, 0, 0)" xlink:href="#linear-gradient"/>
    <linearGradient id="linear-gradient-9" x1="820.09" y1="216.74" x2="876.98" y2="216.74" xlink:href="#linear-gradient-6"/>
    <linearGradient id="linear-gradient-10" x1="779" y1="216.44" x2="919.05" y2="216.44" xlink:href="#linear-gradient-6"/>
    <linearGradient id="linear-gradient-11" x1="1178.33" y1="111.02" x2="1353.65" y2="111.02" gradientTransform="translate(-774.97 -431.77) rotate(29.53)" xlink:href="#linear-gradient-4"/>
    <linearGradient id="linear-gradient-12" x1="61.72" y1="385.05" x2="245.62" y2="385.05" gradientTransform="matrix(1, 0, 0, 1, 0, 0)" xlink:href="#linear-gradient-3"/>
    <linearGradient id="linear-gradient-13" x1="-103.77" y1="452.91" x2="130.98" y2="452.91" gradientTransform="translate(82.01 12.84) rotate(-3.04)" xlink:href="#linear-gradient-4"/>
    <linearGradient id="linear-gradient-14" x1="277.35" y1="416.9" x2="460.28" y2="454.22" gradientTransform="translate(44.9 -308.41) rotate(.8) scale(.94 .81)" xlink:href="#linear-gradient-6"/>
    <linearGradient id="linear-gradient-15" x1="475.06" y1="483.13" x2="576.17" y2="503.75" gradientTransform="translate(44.9 -308.41) rotate(.8) scale(.94 .81)" xlink:href="#linear-gradient-6"/>
    <linearGradient id="linear-gradient-16" x1="5545.98" y1="636.87" x2="5385.82" y2="811.08" gradientTransform="translate(-4995.78 -51.55) rotate(.54)" xlink:href="#linear-gradient-3"/>
    <linearGradient id="linear-gradient-17" x1="5493.99" y1="649.81" x2="5508.22" y2="649.81" gradientTransform="translate(-4995.78 -51.55) rotate(.54)" gradientUnits="userSpaceOnUse">
      <stop offset="0" stop-color="#f9b776"/>
      <stop offset="1" stop-color="#f47960"/>
    </linearGradient>
    <linearGradient id="Degradado_sin_nombre_44" data-name="Degradado sin nombre 44" x1="5558.6" y1="439.85" x2="5422.3" y2="624.57" gradientTransform="translate(-4995.78 -51.55) rotate(.54)" gradientUnits="userSpaceOnUse">
      <stop offset="0" stop-color="#d0d0f4"/>
      <stop offset="1" stop-color="#4f3d9b"/>
    </linearGradient>
    <linearGradient id="linear-gradient-18" x1="5510.05" y1="603.84" x2="5349.88" y2="778.05" gradientTransform="translate(-4995.78 -51.55) rotate(.54)" xlink:href="#linear-gradient-3"/>
    <linearGradient id="linear-gradient-19" x1="5442.72" y1="649.08" x2="5455" y2="649.08" xlink:href="#linear-gradient-17"/>
    <linearGradient id="Degradado_sin_nombre_44-2" data-name="Degradado sin nombre 44" x1="5534.3" y1="421.93" x2="5398.02" y2="606.65" xlink:href="#Degradado_sin_nombre_44"/>
    <linearGradient id="Degradado_sin_nombre_21" data-name="Degradado sin nombre 21" x1="4582.6" y1="289.99" x2="4498.38" y2="614.22" gradientTransform="translate(5059.66) rotate(-180) scale(1 -1)" gradientUnits="userSpaceOnUse">
      <stop offset="0" stop-color="#4f3d9b"/>
      <stop offset="1" stop-color="#e6e6fa"/>
    </linearGradient>
    <linearGradient id="linear-gradient-20" x1="5552.55" y1="278.65" x2="5625.23" y2="278.65" xlink:href="#linear-gradient-17"/>
    <linearGradient id="linear-gradient-21" x1="2327.69" y1="265.54" x2="2376.47" y2="376.51" gradientTransform="translate(2940.94 24.78) rotate(-179.46) scale(1 -1)" xlink:href="#linear-gradient-17"/>
    <linearGradient id="linear-gradient-22" x1="5624.88" y1="229.52" x2="5645.23" y2="198.23" xlink:href="#linear-gradient-17"/>
    <linearGradient id="Degradado_sin_nombre_21-2" data-name="Degradado sin nombre 21" x1="4647.8" y1="306.92" x2="4563.59" y2="631.15" xlink:href="#Degradado_sin_nombre_21"/>
    <linearGradient id="linear-gradient-23" x1="5393.5" y1="381.6" x2="5485.48" y2="381.6" xlink:href="#linear-gradient-17"/>
    <linearGradient id="linear-gradient-24" x1="5464.13" y1="283.27" x2="5500.5" y2="283.27" xlink:href="#linear-gradient-17"/>
    <linearGradient id="linear-gradient-25" x1="-2271.41" y1="1300.96" x2="-2285" y2="1256.14" gradientTransform="translate(1362.6 -2214.2) rotate(-41.21)" xlink:href="#linear-gradient-17"/>
    <linearGradient id="linear-gradient-26" x1="-2283.67" y1="1222.87" x2="-2272.3" y2="1287.7" gradientTransform="translate(1362.6 -2214.2) rotate(-41.21)" xlink:href="#linear-gradient-3"/>
    <linearGradient id="linear-gradient-27" x1="-2285.3" y1="1300.75" x2="-2297.53" y2="1260.43" gradientTransform="translate(1362.6 -2214.2) rotate(-41.21)" xlink:href="#linear-gradient-17"/>
    <linearGradient id="linear-gradient-28" x1="5216.4" y1="322.84" x2="5267.15" y2="534.32" gradientTransform="translate(-4705.66)" xlink:href="#linear-gradient-3"/>
    <linearGradient id="linear-gradient-29" x1="5181.62" y1="378.79" x2="5210.38" y2="378.79" gradientTransform="translate(-4705.66)" xlink:href="#linear-gradient-17"/>
    <linearGradient id="linear-gradient-30" x1="4528.47" y1="345.4" x2="4536.06" y2="377" gradientTransform="translate(5059.66) rotate(-180) scale(1 -1)" gradientUnits="userSpaceOnUse">
      <stop offset="0" stop-color="#53d8ff"/>
      <stop offset="1" stop-color="#3840f7"/>
    </linearGradient>
    <linearGradient id="linear-gradient-31" x1="269.06" y1="552.97" x2="189.69" y2="732.6" gradientUnits="userSpaceOnUse">
      <stop offset="0" stop-color="#fdf53f"/>
      <stop offset=".66" stop-color="#e57a58"/>
      <stop offset="1" stop-color="#d93c65"/>
    </linearGradient>
    <linearGradient id="linear-gradient-32" x1="334.57" y1="581.92" x2="255.2" y2="761.55" xlink:href="#linear-gradient-31"/>
    <linearGradient id="linear-gradient-33" x1="258.2" y1="658.36" x2="272.13" y2="591.52" xlink:href="#linear-gradient-31"/>
    <linearGradient id="linear-gradient-34" x1="367.89" y1="673.53" x2="423.95" y2="673.53" gradientUnits="userSpaceOnUse">
      <stop offset="0" stop-color="#cb236d"/>
      <stop offset="1" stop-color="#4c246d"/>
    </linearGradient>
    <linearGradient id="linear-gradient-35" x1="411.08" y1="565.73" x2="395.76" y2="671.56" xlink:href="#linear-gradient-34"/>
    <linearGradient id="linear-gradient-36" x1="370.69" y1="656.63" x2="385.85" y2="656.63" gradientTransform="matrix(1, 0, 0, 1, 0, 0)" xlink:href="#linear-gradient-17"/>
    <linearGradient id="linear-gradient-37" x1="455.81" y1="662.42" x2="501.08" y2="662.42" xlink:href="#linear-gradient-34"/>
    <linearGradient id="linear-gradient-38" x1="486.95" y1="576.71" x2="471.63" y2="682.54" xlink:href="#linear-gradient-34"/>
    <linearGradient id="linear-gradient-39" x1="286.81" y1="588.19" x2="406.89" y2="588.19" gradientTransform="matrix(1, 0, 0, 1, 0, 0)" xlink:href="#linear-gradient-3"/>
    <linearGradient id="linear-gradient-40" x1="442.53" y1="657.91" x2="460.64" y2="657.91" gradientTransform="matrix(1, 0, 0, 1, 0, 0)" xlink:href="#linear-gradient-17"/>
    <linearGradient id="linear-gradient-41" x1="395.88" y1="538.16" x2="264.06" y2="687.62" gradientTransform="matrix(1, 0, 0, 1, 0, 0)" xlink:href="#linear-gradient-3"/>
    <linearGradient id="linear-gradient-42" x1="341.94" y1="402.73" x2="350.87" y2="380.22" gradientTransform="matrix(1, 0, 0, 1, 0, 0)" xlink:href="#linear-gradient-17"/>
    <linearGradient id="Degradado_sin_nombre_42" data-name="Degradado sin nombre 42" x1="305.02" y1="453.9" x2="403.34" y2="615.32" gradientUnits="userSpaceOnUse">
      <stop offset="0" stop-color="#9c9ce2"/>
      <stop offset=".66" stop-color="#d0d0f4"/>
      <stop offset="1" stop-color="#e6e6fa"/>
    </linearGradient>
    <linearGradient id="linear-gradient-43" x1="418.22" y1="490.29" x2="460.05" y2="490.29" gradientTransform="matrix(1, 0, 0, 1, 0, 0)" xlink:href="#linear-gradient-17"/>
    <linearGradient id="linear-gradient-44" x1="2180.79" y1="894.5" x2="2135.96" y2="928.8" gradientTransform="translate(-1909.65 -245.05) rotate(-7.5)" xlink:href="#linear-gradient-17"/>
    <linearGradient id="linear-gradient-45" x1="2149.3" y1="867.42" x2="2189.89" y2="919.68" gradientTransform="translate(-1909.65 -245.05) rotate(-7.5)" xlink:href="#linear-gradient-3"/>
    <linearGradient id="linear-gradient-46" x1="2175.23" y1="887.23" x2="2130.4" y2="921.53" gradientTransform="translate(-1909.65 -245.05) rotate(-7.5)" xlink:href="#linear-gradient-17"/>
    <linearGradient id="linear-gradient-47" x1="834.55" y1="-6676.72" x2="722.68" y2="-6568.56" gradientTransform="translate(-7844.54 229.22) rotate(-177.17) scale(1.39 -1.39)" xlink:href="#linear-gradient-3"/>
    <linearGradient id="linear-gradient-48" x1="-2047.75" y1="-7161.69" x2="-2159.61" y2="-7053.54" gradientTransform="translate(5512.85 -10798.9) rotate(-62.23) scale(1.39 -1.39)" xlink:href="#linear-gradient-3"/>
    <linearGradient id="linear-gradient-49" x1="726.57" y1="670.08" x2="745.62" y2="550.24" gradientTransform="matrix(1, 0, 0, 1, 0, 0)" xlink:href="#linear-gradient-30"/>
    <linearGradient id="linear-gradient-50" x1="734.21" y1="671.29" x2="753.26" y2="551.45" gradientTransform="matrix(1, 0, 0, 1, 0, 0)" xlink:href="#linear-gradient-30"/>
    <linearGradient id="linear-gradient-51" x1="719.49" y1="668.96" x2="738.54" y2="549.12" gradientTransform="matrix(1, 0, 0, 1, 0, 0)" xlink:href="#linear-gradient-30"/>
    <linearGradient id="linear-gradient-52" x1="637.25" y1="593.78" x2="699.93" y2="593.78" gradientTransform="matrix(1, 0, 0, 1, 0, 0)" xlink:href="#linear-gradient-17"/>
    <linearGradient id="linear-gradient-53" x1="675.6" y1="634.62" x2="666.38" y2="775.97" xlink:href="#linear-gradient-34"/>
    <linearGradient id="linear-gradient-54" x1="563.66" y1="598.06" x2="695.92" y2="598.06" gradientTransform="matrix(1, 0, 0, 1, 0, 0)" xlink:href="#linear-gradient-17"/>
    <linearGradient id="Degradado_sin_nombre_49" data-name="Degradado sin nombre 49" x1="645.27" y1="529.07" x2="793.43" y2="529.07" gradientUnits="userSpaceOnUse">
      <stop offset="0" stop-color="#e6e6fa"/>
      <stop offset=".66" stop-color="#9c9ce2"/>
      <stop offset="1" stop-color="#4f3d9b"/>
    </linearGradient>
    <linearGradient id="linear-gradient-55" x1="586.64" y1="628.82" x2="577.43" y2="770.16" xlink:href="#linear-gradient-34"/>
    <linearGradient id="linear-gradient-56" x1="749.63" y1="281.6" x2="727.82" y2="396.22" gradientTransform="matrix(1, 0, 0, 1, 0, 0)" xlink:href="#linear-gradient-3"/>
    <linearGradient id="Degradado_sin_nombre_38" data-name="Degradado sin nombre 38" x1="710.52" y1="406.39" x2="780.8" y2="559.34" gradientUnits="userSpaceOnUse">
      <stop offset="0" stop-color="#d0d0f4"/>
      <stop offset=".66" stop-color="#9c9ce2"/>
      <stop offset="1" stop-color="#4f3d9b"/>
    </linearGradient>
    <linearGradient id="linear-gradient-57" x1="713.53" y1="425" x2="704.6" y2="367.71" gradientTransform="matrix(1, 0, 0, 1, 0, 0)" xlink:href="#linear-gradient-17"/>
    <linearGradient id="linear-gradient-58" x1="-2132.81" y1="3886.31" x2="-2074.37" y2="3926.01" gradientTransform="translate(-1142.98 -3683.26) rotate(-52.83)" xlink:href="#linear-gradient-17"/>
    <linearGradient id="linear-gradient-59" x1="-2093.83" y1="3838.84" x2="-2115.65" y2="3953.46" gradientTransform="translate(-1142.98 -3683.26) rotate(-52.83)" xlink:href="#linear-gradient-3"/>
    <linearGradient id="linear-gradient-60" x1="-2129.31" y1="3881.16" x2="-2070.87" y2="3920.85" gradientTransform="translate(-1142.98 -3683.26) rotate(-52.83)" xlink:href="#linear-gradient-17"/>
    <linearGradient id="linear-gradient-61" x1="750.19" y1="490.04" x2="874.43" y2="490.04" gradientTransform="matrix(1, 0, 0, 1, 0, 0)" xlink:href="#linear-gradient-17"/>
    <linearGradient id="linear-gradient-62" x1="651.66" y1="629.98" x2="573.45" y2="651.42" gradientTransform="translate(70.55 -119.79) rotate(-2.83)" xlink:href="#linear-gradient-3"/>
    <linearGradient id="linear-gradient-63" x1="646.7" y1="426.72" x2="591.21" y2="485.37" gradientTransform="matrix(1, 0, 0, 1, 0, 0)" xlink:href="#linear-gradient-3"/>
    <linearGradient id="linear-gradient-64" x1="613.15" y1="441.33" x2="587.97" y2="479.24" gradientTransform="matrix(1, 0, 0, 1, 0, 0)" xlink:href="#linear-gradient-30"/>
    <linearGradient id="linear-gradient-65" x1="-10049.67" y1="766.72" x2="-10048.85" y2="853.58" gradientTransform="translate(-9229.28) rotate(-180) scale(1 -1)" xlink:href="#linear-gradient-3"/>
    <linearGradient id="linear-gradient-66" x1="-10070.61" y1="669.72" x2="-10075.12" y2="634.49" gradientTransform="translate(-9229.28) rotate(-180) scale(1 -1)" xlink:href="#linear-gradient-17"/>
    <linearGradient id="linear-gradient-67" x1="-10167.03" y1="767.83" x2="-10166.21" y2="854.68" gradientTransform="translate(-9229.28) rotate(-180) scale(1 -1)" xlink:href="#linear-gradient-3"/>
    <linearGradient id="linear-gradient-68" x1="-10169.11" y1="681.8" x2="-10173.5" y2="647.46" gradientTransform="translate(-9229.28) rotate(-180) scale(1 -1)" xlink:href="#linear-gradient-17"/>
    <linearGradient id="linear-gradient-69" x1="-10199.8" y1="551.33" x2="-10064.63" y2="551.33" gradientTransform="translate(-9229.28) rotate(-180) scale(1 -1)" xlink:href="#linear-gradient-3"/>
    <linearGradient id="linear-gradient-70" x1="-10171.77" y1="530.59" x2="-10166.85" y2="520.76" gradientTransform="translate(-9229.28) rotate(-180) scale(1 -1)" xlink:href="#linear-gradient-30"/>
    <linearGradient id="Degradado_sin_nombre_14" data-name="Degradado sin nombre 14" x1="-10090.86" y1="324.05" x2="-10175.26" y2="574.79" gradientTransform="translate(-9229.28) rotate(-180) scale(1 -1)" gradientUnits="userSpaceOnUse">
      <stop offset="0" stop-color="#d0d0f4"/>
      <stop offset=".15" stop-color="#cbc9f1"/>
      <stop offset=".35" stop-color="#bdb8ea"/>
      <stop offset=".58" stop-color="#a69bdd"/>
      <stop offset=".84" stop-color="#8773cd"/>
      <stop offset="1" stop-color="#7056c1"/>
    </linearGradient>
    <linearGradient id="linear-gradient-71" x1="-10071.78" y1="379.63" x2="-10041.87" y2="411.59" gradientTransform="translate(-9229.28) rotate(-180) scale(1 -1)" xlink:href="#linear-gradient-34"/>
    <linearGradient id="linear-gradient-72" x1="-10135.92" y1="456.29" x2="-10074.37" y2="456.29" gradientTransform="translate(-9229.28) rotate(-180) scale(1 -1)" xlink:href="#linear-gradient-17"/>
    <linearGradient id="linear-gradient-73" x1="-10079.2" y1="379.13" x2="-9964.25" y2="379.13" gradientTransform="translate(-9229.28) rotate(-180) scale(1 -1)" xlink:href="#linear-gradient-17"/>
    <linearGradient id="linear-gradient-74" x1="-10120.58" y1="314.66" x2="-10080.58" y2="273.62" gradientTransform="translate(-9229.28) rotate(-180) scale(1 -1)" xlink:href="#linear-gradient-17"/>
    <linearGradient id="linear-gradient-75" x1="-8855.47" y1="60.04" x2="-8909.07" y2="130.95" gradientTransform="translate(-6350.65 -4910.54) rotate(-144.83) scale(1 -1)" xlink:href="#linear-gradient-17"/>
    <linearGradient id="linear-gradient-76" x1="-8896.41" y1="77.14" x2="-8832.37" y2="77.14" gradientTransform="translate(-6350.65 -4910.54) rotate(-144.83) scale(1 -1)" xlink:href="#linear-gradient-3"/>
    <linearGradient id="linear-gradient-77" x1="-8933.98" y1="116.2" x2="-8890.98" y2="72.08" gradientTransform="translate(-6350.65 -4910.54) rotate(-144.83) scale(1 -1)" xlink:href="#linear-gradient-17"/>
    <linearGradient id="linear-gradient-78" x1="-10140.35" y1="403.62" x2="-10163.4" y2="471.53" gradientTransform="translate(-9229.28) rotate(-180) scale(1 -1)" xlink:href="#linear-gradient-34"/>
    <linearGradient id="linear-gradient-79" x1="357.55" y1="596.79" x2="429.8" y2="596.79" gradientUnits="userSpaceOnUse">
      <stop offset="0" stop-color="#9cfffb"/>
      <stop offset="1" stop-color="#9bfffa"/>
    </linearGradient>
    <linearGradient id="linear-gradient-80" x1="365.9" y1="596.79" x2="438.15" y2="596.79" xlink:href="#linear-gradient-79"/>
    <linearGradient id="linear-gradient-81" x1="805.2" x2="877.45" xlink:href="#linear-gradient-79"/>
    <linearGradient id="linear-gradient-82" x1="813.54" y1="596.79" x2="885.79" y2="596.79" xlink:href="#linear-gradient-79"/>
    <linearGradient id="linear-gradient-83" x1="-10063.19" y1="486.82" x2="-10146.62" y2="540.9" gradientTransform="translate(-9229.28) rotate(-180) scale(1 -1)" xlink:href="#linear-gradient-30"/>
    <linearGradient id="linear-gradient-84" x1="-8378.23" y1="549.36" x2="-8378.64" y2="524.81" gradientTransform="translate(-7529.28) rotate(-180) scale(1 -1)" xlink:href="#linear-gradient-31"/>
    <linearGradient id="linear-gradient-85" x1="323.66" y1="511.31" x2="908.26" y2="511.31" xlink:href="#linear-gradient-79"/>
    <linearGradient id="linear-gradient-86" x1="334.09" y1="375.12" x2="202.07" y2="581.81" gradientTransform="matrix(1, 0, 0, 1, 0, 0)" xlink:href="#linear-gradient"/>
    <linearGradient id="linear-gradient-87" x1="229.68" y1="415.67" x2="-54.36" y2="771.72" xlink:href="#linear-gradient-34"/>
    <linearGradient id="linear-gradient-88" x1="1048.43" y1="157.48" x2="1000.54" y2="321.1" gradientUnits="userSpaceOnUse">
      <stop offset="0" stop-color="#fdf53f"/>
      <stop offset="1" stop-color="#d93c65"/>
    </linearGradient>
    <linearGradient id="linear-gradient-89" x1="1045.72" y1="148.61" x2="957.39" y2="292.79" xlink:href="#linear-gradient-88"/>
    <linearGradient id="linear-gradient-90" x1="1112.79" y1="157.48" x2="1064.9" y2="321.1" xlink:href="#linear-gradient-88"/>
    <linearGradient id="linear-gradient-91" x1="1110.07" y1="148.61" x2="1021.74" y2="292.79" xlink:href="#linear-gradient-88"/>
    <linearGradient id="linear-gradient-92" x1="1086.02" y1="240.14" x2="1014.08" y2="302.19" gradientTransform="matrix(1, 0, 0, 1, 0, 0)" xlink:href="#linear-gradient-30"/>
    <linearGradient id="linear-gradient-93" x1="705.55" y1="203.7" x2="695.43" y2="270.49" gradientTransform="matrix(1, 0, 0, 1, 0, 0)" xlink:href="#linear-gradient-3"/>
    <linearGradient id="linear-gradient-94" x1="707.79" y1="176" x2="690.31" y2="368.75" gradientTransform="matrix(1, 0, 0, 1, 0, 0)" xlink:href="#linear-gradient-30"/>
    <linearGradient id="linear-gradient-95" x1="708.3" y1="176.05" x2="690.82" y2="368.79" gradientTransform="matrix(1, 0, 0, 1, 0, 0)" xlink:href="#linear-gradient-30"/>
    <linearGradient id="linear-gradient-96" x1="707.33" y1="175.96" x2="689.86" y2="368.71" gradientTransform="matrix(1, 0, 0, 1, 0, 0)" xlink:href="#linear-gradient-30"/>
    <linearGradient id="linear-gradient-97" x1="707.85" y1="176.01" x2="690.38" y2="368.75" gradientTransform="matrix(1, 0, 0, 1, 0, 0)" xlink:href="#linear-gradient-30"/>
    <linearGradient id="linear-gradient-98" x1="704.86" y1="82.3" x2="698.25" y2="262.04" xlink:href="#linear-gradient-88"/>
    <linearGradient id="linear-gradient-99" x1="716.52" y1="145.45" x2="721.36" y2="299.42" xlink:href="#linear-gradient-88"/>
    <linearGradient id="linear-gradient-100" x1="689.82" y1="146.29" x2="694.67" y2="300.26" xlink:href="#linear-gradient-88"/>
  </defs>
  <g id="Illustration">
    <g>
      <g class="cls-23">
        <path class="cls-37" d="m1131.92,283.34c-30.98-43.13-93.87-64.41-98.11-130.7-1.61-25.1,15.11-45.99,6.25-70.31-59.38-163.19-304.6-40.06-411.07-.87-44.33,16.32-97.41,34.64-145.78,34.42-55.68-.25-108.45-26.83-163.69-30.03-17.02-.99-32.8,1.06-47.44,5.76-54.91,17.62-101.64,77.5-117.56,142.59-12.9,52.77,8.25,103.53-13.23,155.55-22.89,55.45-70.72,95.23-80.66,158.6-11.93,76.06,47.64,139.43,108.92,139.07,39.01-.23,110.96-9.84,143.02-37.22,39.05-33.35,78.57-37,125.6-37.64,89.5-1.21,179.76,17.08,268.63,29.14,76.15,10.33,151.46,27.11,228.2,26.59,56.36-.38,104.16-1.44,131.99-68.97,33.27-80.71,129.91-225.51,64.92-315.98Z"/>
        <path class="cls-38" d="m1091.87,298.4c-21.91-29.29-72.94-30.08-104.66-45.96-58.56-29.32-7.52-84.39-25.21-130.91-14.28-37.54-58.09-72.12-102.18-63.51-31.22,6.09-56.77,24.45-84.95,37.31-27.15,12.39-56.76,20.46-85.78,27.94-63.9,16.48-130.78,27.59-197.13,27.41-51.51-.14-100.3-23.66-151.39-26.42-15.74-.85-30.34.99-43.9,5.18-50.83,15.73-94.15,68.95-108.97,126.77-12.02,46.87,7.48,91.9-12.47,138.12-21.26,49.26-65.56,84.65-74.86,140.92-11.15,67.54,43.86,123.72,100.56,123.3,36.09-.26,102.67-8.9,132.37-33.26,36.17-29.66,72.74-32.96,116.25-33.6,82.8-1.21,166.28,14.9,248.48,25.47,70.43,9.06,140.09,23.84,211.08,23.27,52.14-.42,96.36-1.43,122.22-61.43,30.9-71.7,120.51-200.4,60.52-280.62Z"/>
      </g>
      <g class="cls-23">
        <path class="cls-96" d="m977.66,665.27c-3.13,7.56,1.44,16.06,9.48,17.61,42.19,8.11,166.78,13.19,212.71-193.58,1.3-5.87-6-9.68-10.04-5.22-18.9,20.89-52.51,56.41-81.07,67.34-88.48,33.86-120.51,88.34-131.08,113.85Z"/>
        <path class="cls-43" d="m983.72,677.51c-.22.06-.44.09-.66.09-1.02,0-1.96-.67-2.26-1.7-.36-1.25.36-2.56,1.61-2.93,61.57-17.9,106.77-52.35,133.85-78.09,29.32-27.88,44.23-51.75,44.38-51.99.68-1.11,2.14-1.45,3.25-.77,1.11.69,1.45,2.14.76,3.25-.15.24-15.38,24.63-45.14,52.93-27.46,26.1-73.3,61.03-135.78,79.2Z"/>
      </g>
      <g class="cls-23">
        <path class="cls-108" d="m1083.39,330.52c4.8,38.61,28.81,276.66-97.8,352.62-3.83,2.3-8.75-.26-9.07-4.72-2.05-28.37-3.34-118.54,48.74-224.95,37.57-76.78,51.34-111.39,55.69-123.23.46-1.25,2.29-1.04,2.45.28Z"/>
        <path class="cls-44" d="m976.51,680.78c-.38,0-.77-.09-1.13-.29-1.14-.62-1.57-2.06-.95-3.2,63.84-117.37,90.6-256.32,90.7-263.2-.16-1.13.51-2.24,1.63-2.59,1.24-.38,2.57.3,2.96,1.55,1.54,4.93-27.57,149.63-91.14,266.5-.43.79-1.24,1.23-2.08,1.23Z"/>
      </g>
      <g>
        <g>
          <g>
            <path class="cls-97" d="m187.44,351.24c-.98-.45-1.67-1.44-1.67-2.57-.01-3.73.05-7.53.19-11.28.06-1.54,1.37-2.72,2.94-2.64,3.8.18,2.5,3.89,2.54,14,0,1.54-1.26,2.78-2.83,2.76-.42,0-.82-.1-1.18-.26Z"/>
            <path class="cls-97" d="m189.57,302.46c1.2-7.07,2.7-14.18,4.46-21.13.38-1.49,1.92-2.38,3.44-1.98,4.14,1.11,1.23,3.28-2.3,24.12-.26,1.52-1.72,2.52-3.26,2.24-1.57-.29-2.59-1.76-2.33-3.26Zm15.21-54.48c2.64-6.7,5.61-13.42,8.7-19.74,1.66-3.4,6.71-.75,5.12,2.5-3.08,6.3-5.94,12.78-8.53,19.34-.56,1.43-2.21,2.12-3.67,1.54-1.48-.59-2.18-2.23-1.62-3.64Zm26.1-50.14c3.95-5.97,8.2-11.86,12.63-17.5,2.28-2.91,6.78.57,4.51,3.47-4.34,5.53-8.5,11.3-12.37,17.15-2.04,3.08-6.8-.04-4.77-3.11Zm36.08-39.71c-1.11-1.1-1.13-2.87-.02-3.95,5.13-5.03,10.53-9.91,16.06-14.53,2.84-2.37,6.55,1.92,3.71,4.29-5.41,4.52-10.71,9.31-15.73,14.23-1.1,1.08-2.9,1.06-4.01-.04Zm43.67-35.41c-.87-1.3-.51-3.03.79-3.86,6.08-3.88,12.4-7.56,18.77-10.95,3.28-1.74,6.04,3.18,2.76,4.93-6.24,3.32-12.43,6.93-18.39,10.73-1.3.83-3.07.45-3.93-.85Zm51.67-24.28c-.65-.3-1.18-.83-1.47-1.53-.59-1.44.12-3.06,1.57-3.61,6.78-2.57,13.74-4.9,20.69-6.94,1.5-.44,3.09.41,3.56,1.89.47,1.48-.36,3.04-1.85,3.47-6.81,1.99-13.63,4.28-20.28,6.8-.75.28-1.54.23-2.22-.08Zm54.79-14.61c-.82-.38-1.46-1.14-1.63-2.08-.28-1.52.75-2.96,2.29-3.21,7.18-1.15,14.5-2.04,21.76-2.63,1.56-.13,2.95,1.01,3.11,2.56.16,1.54-.98,2.89-2.54,3.02-7.11.58-14.28,1.45-21.32,2.58-.59.09-1.16,0-1.67-.23Zm55.18-5.92c.04-1.54,1.35-2.74,2.91-2.67,7.29.32,14.66.94,21.93,1.82,3.74.47,3.12,6-.6,5.55-7.12-.87-14.34-1.47-21.48-1.79-1.56-.07-2.8-1.37-2.76-2.92Zm177.23,73.35c-16.05-14.16-19.88-14.22-17.31-17.57.94-1.22,2.71-1.44,3.97-.5,5.85,4.4,11.59,9.09,17.08,13.93,2.82,2.48-.92,6.63-3.74,4.14Zm-120.62-65.62c.36-1.5,1.89-2.4,3.42-2.01,7.09,1.78,14.21,3.86,21.16,6.19,3.57,1.19,1.83,6.48-1.74,5.29-6.81-2.27-13.79-4.32-20.74-6.06-1.54-.39-2.46-1.92-2.1-3.4Zm74.58,32.64c-18.55-10.64-22.35-9.95-20.53-13.77,1.16-2.42,4.11-1.28,3.77-1.29,6.63,3.16,13.21,6.61,19.55,10.24,1.36.78,1.84,2.5,1.07,3.83-.74,1.27-2.41,1.8-3.87.99Z"/>
            <path class="cls-97" d="m681.62,184.73c-6.01-7.41-9.89-10.05-6.99-12.51,1.17-1,2.97-.86,4,.32,6.53,7.41,9.85,10.42,6.98,12.67-.86.67-3,.73-3.99-.48Z"/>
          </g>
          <g>
            <path class="cls-97" d="m743.04,393.07c-1.1-.51-1.81-1.68-1.65-2.92.46-3.65.84-7.34,1.14-10.98.13-1.54,1.5-2.66,3.06-2.51,1.56.16,2.72,1.52,2.6,3.06-.31,3.72-.7,7.49-1.17,11.21-.19,1.53-1.61,2.59-3.16,2.38-.29-.04-.57-.12-.82-.24Z"/>
            <path class="cls-97" d="m344.39,599.91c-7.08-3.5-14.09-7.33-20.85-11.39-1.35-.81-1.79-2.53-.99-3.85,2.25-3.7,3.6.01,24.31,10.25,1.41.7,2,2.38,1.32,3.76-1.19,2.41-4.13,1.22-3.79,1.23Zm33.83,11.22c1.37-4.1,3.62-.74,25.89,4.85,1.53.38,2.47,1.91,2.11,3.4-.36,1.5-1.89,2.4-3.41,2.02-7.62-1.91-15.28-4.17-22.77-6.71-1.5-.51-2.3-2.11-1.81-3.56Zm-86.32-44.66c-6.14-4.93-12.15-10.17-17.87-15.59-1.14-1.08-1.19-2.85-.11-3.95,3.03-3.11,3.52.8,21.52,15.24,1.23.98,1.43,2.75.45,3.94-.98,1.19-2.76,1.36-3.99.38Zm147.92,61.52c-1.08-.5-1.78-1.62-1.66-2.84.15-1.53,1.53-2.64,3.09-2.46,7.68.86,15.46,1.4,23.15,1.61,1.57.04,2.82,1.33,2.81,2.87-.02,1.54-1.3,2.76-2.87,2.72-7.84-.22-15.79-.77-23.63-1.65-.32-.04-.62-.12-.9-.25Zm61.34.12c-.87-.4-1.52-1.22-1.65-2.23-.2-1.53.9-2.91,2.46-3.08,7.63-.82,15.32-1.98,22.85-3.43,1.53-.3,3.04.69,3.37,2.21.33,1.52-.65,2.98-2.18,3.28-7.69,1.49-15.54,2.66-23.32,3.5-.54.06-1.06-.04-1.52-.25Zm59.65-13.14c-.68-.31-1.23-.88-1.5-1.63-.53-1.46.23-3.05,1.71-3.55,7.24-2.45,14.46-5.24,21.46-8.28,1.43-.62,3.11.03,3.76,1.44.65,1.41.03,3.06-1.4,3.68-7.14,3.1-14.51,5.95-21.9,8.45-.72.24-1.48.18-2.13-.12Zm55.1-25.69c-.49-.22-.92-.59-1.23-1.07-.84-1.32-.45-3.04.87-3.84,6.5-3.95,12.9-8.23,19.04-12.72,1.25-.91,3.03-.65,3.97.6.95,1.24.71,2.99-.54,3.91-6.26,4.58-12.79,8.94-19.43,12.98-.84.51-1.85.53-2.69.14Zm47.06-37.6c-3.12-3.12.83-3.42,15.66-20.53,2.41-2.79,6.76.88,4.34,3.67-5.06,5.84-10.44,11.53-15.99,16.92-1.1,1.07-2.9,1.05-4.01-.06Zm38.77-46.25c-3.73-2.38.02-3.5,10.62-23.49,1.72-3.24,6.77-.6,5.04,2.65-3.62,6.82-7.57,13.56-11.75,20.03-.85,1.31-2.62,1.64-3.91.81Zm27.13-53.76c-1.33-.61-2-2.14-1.5-3.51,2.6-7.13,4.91-14.44,6.88-21.7.4-1.48,1.96-2.35,3.47-1.93,1.52.43,2.42,1.97,2.01,3.45-2.01,7.41-4.37,14.86-7.02,22.14-.52,1.44-2.15,2.18-3.62,1.63-.07-.03-.15-.06-.22-.09Z"/>
            <path class="cls-97" d="m247.85,522.44c-6.19-7.71-9.36-10.85-6.38-12.96,3.1-2.2,4.48,1.65,10.81,9.54.98,1.22.78,2.98-.44,3.92-1.22.94-3.01.72-3.99-.5Z"/>
          </g>
          <g>
            <path class="cls-75" d="m283.81,454.24l40.62-2.14c11.25,15.3,25.02,28.98,41.03,40.35-1.18,38.94-4.02,41.58.03,43.26l45.31,18.74c1.32.55,2.84.21,3.78-.83l26.67-29.82c19.34,3.26,38.73,3.3,57.47.4l27.3,30.23c.96,1.06,2.48,1.42,3.79.89l44.94-18.09c1.31-.53,2.13-1.83,2.03-3.23l-2.87-40.06c15.33-10.82,28.99-24.15,40.24-39.73l40.64,2.72c1.43.1,2.74-.71,3.27-2l18.24-44.32c.53-1.3.17-2.8-.91-3.74l-30.74-26.8c2.98-19,2.67-38.11-.6-56.62,28.96-26.38,32.75-26.14,31.05-30.1-19.54-43.41-18.01-46.88-22.46-46.65l-40.62,2.14c-11.25-15.3-25.02-28.98-41.03-40.35,1.18-38.91,4.02-41.58-.03-43.26-45.34-17.85-46.22-21.12-49.09-17.91l-26.67,29.82c-19.34-3.26-38.73-3.3-57.47-.4-26.95-28.64-27.04-32.75-31.09-31.12-44.15,18.68-47.27,16.99-46.96,21.32l2.87,40.06c-15.34,10.82-28.99,24.15-40.24,39.73-38.85-1.81-42.25-4.77-43.92-.72-17.26,44.17-20.65,45.16-17.33,48.06l30.74,26.8c-2.97,19-2.67,38.11.6,56.62-28.86,26.29-32.76,26.12-31.05,30.1,19.54,43.41,18.01,46.88,22.46,46.65Z"/>
            <path class="cls-17" d="m421.04,343.33c3.55-25.57,27.6-43.17,53.62-39.24,26.02,3.95,44.31,27.95,40.76,53.52-3.55,25.57-27.6,43.17-53.62,39.24h0c-26.03-3.94-44.31-27.95-40.76-53.52Zm41.34,49.38h.03s-.03,0-.03,0Zm11.14-80.32c-21.12-3.2-41.08,10.9-44.04,32.22-2.91,21,12.1,40.73,33.48,43.96,21.37,3.23,41.13-11.22,44.04-32.22,2.92-21.03-12.14-40.73-33.48-43.96Z"/>
            <path class="cls-18" d="m418.96,458.81h0c-6.42-2.96-12.58-6.44-18.36-10.4-1.74-1.19-2.33-3.4-1.5-5.21.1-.22.22-.43.36-.63,1.32-1.9,3.97-2.35,5.91-1.02,6.65,4.55,13.85,8.43,21.37,11.55h0c56.66,23.44,121.12-1.35,145.98-55.31.63-1.38,1.24-2.78,1.83-4.19,23.53-57.19-4.95-122.67-62.97-146.69-57.93-23.97-124.31,2.46-147.81,59.5-13.97,33.95-5.56,58-7.17,61.48-1.73,3.76-7.43,2.91-8.09-1.2-3.6-22.43-.77-46.15,9.32-68.05,43.55-94.49,182.13-90.63,223.67,6.15,12.78,29.78,13.12,62.48.93,92.08-.63,1.53-1.29,3.05-1.98,4.54-12.62,27.4-34.99,48.63-63.44,60.09-30.01,12.08-63.2,11.84-93.46-.68-1.54-.64-3.08-1.31-4.59-2.01Z"/>
          </g>
        </g>
        <g>
          <path class="cls-111" d="m772.65,281.23c6.86,8.09,15.07,15.15,24.43,20.78l.46,22.71c.05,2.52,2.2,1.55,27.24,10.11,2.32.75,2.06-1.42,15.7-18.82,10.89.89,21.67-.04,31.97-2.6l16.39,15.74c1.82,1.75,2.65-.47,26.41-12.11.71-.36,1.11-1.14,1-1.92l-3.2-22.5c8.09-6.86,15.15-15.07,20.78-24.43,21.69-.89,23.68.61,24.45-1.75,7.83-25.83,9.67-26.54,7.71-28.01l-18.16-13.64c.89-10.88-.04-21.67-2.6-31.97l15.74-16.39c1.75-1.82-.47-2.65-12.11-26.4-1.1-2.16-2.36-.47-24.42,2.2-6.87-8.09-15.07-15.15-24.43-20.78l-.46-22.71c-.05-2.52-2.2-1.54-27.24-10.11-2.3-.74-1.99,1.33-15.7,18.82-10.89-.89-21.67.04-31.97,2.6l-16.39-15.74c-.57-.55-1.44-.68-2.14-.32l-24.26,12.43c-.71.36-1.11,1.14-1,1.92l3.2,22.5c-8.09,6.87-15.15,15.07-20.78,24.43-21.69.89-23.69-.61-24.45,1.75-7.83,25.82-9.67,26.53-7.71,28.01l18.16,13.64c-.89,10.88.04,21.67,2.6,31.97-14.71,15.96-17.19,16.32-16.06,18.53l12.43,24.26c1.11,2.17,2.48.45,24.42-2.2Z"/>
          <g>
            <path class="cls-19" d="m820.15,214.9c1.02-15.69,14.53-27.56,30.22-26.54,15.68,1.02,27.56,14.53,26.54,30.22-1.01,15.65-14.57,27.56-30.22,26.55h0c-15.65-1.02-27.56-14.57-26.54-30.22Zm26.82,25.99h.03s-.03,0-.03,0Zm-18.36-25.45c-.71,10.99,7.65,20.5,18.63,21.22h0c17.64,1.14,28-19.77,16.29-33.1-11.66-13.27-33.77-5.87-34.93,11.88Z"/>
            <g>
              <path class="cls-97" d="m705.77,259.29c-1.09-3.66-2.05-7.41-2.86-11.16-.33-1.53.64-3.03,2.17-3.36,3.84-.83,3.29,3.46,6.11,12.9.45,1.5-.4,3.07-1.9,3.52-1.49.45-3.07-.4-3.52-1.9Z"/>
              <path class="cls-97" d="m699.73,210.48c.32-7.5,1.21-15.3,2.77-23.11.73-3.67,6.27-2.55,5.54,1.11-4.04,20.23-.89,25.15-5.61,24.95-1.57-.07-2.77-1.39-2.7-2.94Zm16.13-55.14c-1.4-.68-1.99-2.37-1.31-3.78,3.39-6.96,7.36-13.71,11.8-20.07,2.14-3.06,6.77.17,4.63,3.24-4.27,6.12-8.09,12.61-11.35,19.31-1.2,2.46-4.12,1.3-3.78,1.31Zm36.51-47.11c-.36-.17-.69-.41-.96-.73-1.01-1.19-.88-2.97.31-3.99,5.89-5.04,12.22-9.65,18.81-13.71,1.33-.82,3.07-.4,3.89.92.82,1.33.41,3.07-.92,3.89-6.34,3.91-12.43,8.35-18.1,13.19-.87.74-2.05.87-3.02.42Zm52.2-28.72c-.71-.33-1.28-.94-1.52-1.74-.46-1.49.38-3.07,1.87-3.53,7.41-2.27,15.05-3.97,22.73-5.05,1.55-.22,2.97.86,3.19,2.41.22,1.54-.86,2.97-2.41,3.19-7.38,1.04-14.74,2.67-21.86,4.85-.69.21-1.4.15-2.01-.13Zm57.71-8.31c.18-1.55,1.58-2.67,3.13-2.49,7.72.87,15.41,2.36,22.86,4.41,3.6.97,2.11,6.44-1.5,5.45-7.16-1.97-14.56-3.4-21.99-4.24-1.59-.19-2.66-1.61-2.49-3.13Z"/>
              <path class="cls-97" d="m929.76,98.62c-8.54-5.88-12.3-6.49-10.38-9.79.78-1.35,2.48-1.83,3.86-1.03,3.29,1.91,6.57,3.98,9.73,6.16,1.28.89,1.61,2.64.72,3.93-.87,1.26-2.62,1.62-3.93.72Z"/>
            </g>
            <g>
              <path class="cls-97" d="m990.71,198.44c-1.32-10.32-3.37-13.5.36-14.27,1.53-.32,3.02.67,3.34,2.19.77,3.73,1.41,7.55,1.9,11.36.2,1.55-.9,2.96-2.44,3.16-1.54.2-2.96-.89-3.16-2.44Z"/>
              <path class="cls-97" d="m799.82,354.54c1.47-4.46,4.82.13,24.95,3.49,3.68.61,2.77,6.19-.93,5.57-7.53-1.26-15.01-3.11-22.23-5.5-1.46-.48-2.29-2.07-1.79-3.57Zm58.08,8.04c-.13-1.55,1.03-2.92,2.59-3.05,20.52-1.69,24.04-5.99,25.15-1.41.37,1.52-.57,3.04-2.08,3.41-7.4,1.79-15,3.01-22.61,3.63-1.56.13-2.92-1.03-3.05-2.59Zm56.55-15.39c-2.2-4.16,3.37-3.36,19.78-15.61,3-2.23,6.38,2.29,3.38,4.53-6.11,4.56-12.62,8.68-19.34,12.25-1.38.73-3.09.21-3.82-1.17Zm45.96-36.4c-3.66-2.97,1.8-4.42,12.09-22.1,1.88-3.23,6.77-.39,4.89,2.84-3.83,6.58-8.2,12.92-13,18.85-.98,1.21-2.76,1.4-3.97.42Zm26.04-55c5.59-19.8,2.8-24.63,7.48-24.06,1.55.19,2.65,1.6,2.46,3.15-.93,7.59-2.44,15.14-4.51,22.45-.42,1.5-1.98,2.38-3.49,1.95-1.5-.42-2.38-1.98-1.95-3.49Z"/>
              <path class="cls-97" d="m767.98,342.02c-3.22-2.07-6.39-4.3-9.43-6.61-1.24-.94-1.48-2.72-.54-3.96,2.38-3.13,4.74.47,13.03,5.81,1.31.85,1.69,2.59.84,3.91-.86,1.33-2.62,1.68-3.91.84Z"/>
            </g>
            <path class="cls-16" d="m814.06,277.1c-2.33-1.33-2.8-3.96-1.69-5.88,1.17-2.03,3.79-2.71,5.79-1.55,3.76,2.18,7.79,3.97,11.98,5.32.92.11,22.46,8.7,46.94-3.8,48.57-24.88,42.83-96.57-9.17-113.33-29.91-9.65-61.93,4.91-74.76,32.78-12.93,28.06,1.69,42.66-7.26,44.73-2.28.53-4.56-.89-5.09-3.17-2.86-12.3-2.31-25.18,1.59-37.26,11.82-36.68,51.33-57.01,88.12-45.14,39.6,12.77,59.8,57.53,42.04,96.07-14.32,31.08-50.34,48.39-85.03,37.2h0c-4.69-1.52-9.23-3.52-13.47-5.96Z"/>
          </g>
        </g>
      </g>
      <g class="cls-3">
        <g>
          <path class="cls-45" d="m227.21,464.19s39.61-64.1,19.86-99.04c-19.75-34.93-70.31-79.15-17.79-173.75,30.75-55.38,43.39-80.07,48.59-91.02,2.03-4.27,7.56-5.44,11.13-2.33,25.23,21.95,104.48,97.88,86.97,172.07-20.75,87.95-148.76,194.06-148.76,194.06Z"/>
          <path class="cls-55" d="m295.79,136.86s.4,1.2,1.1,3.5c.68,2.29,1.69,5.64,2.78,9.96,1.1,4.31,2.37,9.56,3.65,15.63.65,3.03,1.33,6.26,1.95,9.68.31,1.71.63,3.47.96,5.26.29,1.8.59,3.65.89,5.53.3,1.88.6,3.81.92,5.77.26,1.97.53,3.97.81,6.01.26,2.04.53,4.12.8,6.22.22,2.11.44,4.26.67,6.43.22,2.18.47,4.38.67,6.62.17,2.24.34,4.5.52,6.8.15,2.29.35,4.61.47,6.95.1,2.34.2,4.71.3,7.09.09,2.39.23,4.79.29,7.22.03,2.43.06,4.87.09,7.33.03,2.46.06,4.93.05,7.42-.06,2.49-.13,4.98-.19,7.49-.06,2.51-.13,5.03-.19,7.55-.15,2.52-.3,5.05-.45,7.59-.15,2.54-.31,5.08-.46,7.62l-.06.95-.05.55-.05.47-.19,1.89-.38,3.77c-1.16,10.27-2.99,20.41-5.36,30.24-2.39,9.83-5.35,19.33-8.62,28.37-3.26,9.04-6.95,17.57-10.71,25.52-3.75,7.96-7.69,15.28-11.51,21.92-3.81,6.65-7.6,12.57-11.06,17.74-3.47,5.17-6.64,9.57-9.32,13.15-2.67,3.58-4.92,6.3-6.45,8.15-.78.92-1.38,1.63-1.79,2.1-.42.48-.64.73-.64.73-.93,1.06-2.53,1.16-3.59.23-1.02-.89-1.15-2.42-.33-3.48l.05-.06s.19-.24.55-.69c.36-.48.9-1.19,1.61-2.11,1.41-1.86,3.4-4.67,5.9-8.26,2.49-3.6,5.43-8.04,8.63-13.23,3.21-5.19,6.65-11.15,10.24-17.74,3.58-6.59,7.2-13.87,10.76-21.68,3.56-7.81,6.94-16.21,10.07-25.02,3.13-8.81,5.9-18.06,8.19-27.59,2.32-9.52,4.1-19.31,5.23-29.14l.39-3.77.2-1.89.09-.87.07-.94c.18-2.5.36-4.99.54-7.48.18-2.49.36-4.97.54-7.45.09-2.48.19-4.96.28-7.42.09-2.47.19-4.92.28-7.37.02-2.45.04-4.88.06-7.3.02-2.42.05-4.82.07-7.21,0-2.39-.09-4.76-.12-7.11-.05-2.35-.1-4.68-.14-6.99-.07-2.31-.21-4.59-.32-6.86-.1-2.26-.2-4.5-.3-6.71-.13-2.21-.3-4.39-.45-6.54-.15-2.15-.3-4.28-.45-6.37-.2-2.09-.4-4.14-.59-6.16-.19-2.02-.37-4.01-.55-5.96-.23-1.95-.45-3.86-.66-5.73-.22-1.87-.44-3.71-.65-5.5-.25-1.79-.49-3.53-.73-5.23-.42-3.41-.92-6.64-1.39-9.66-.93-6.06-1.9-11.32-2.74-15.64-.86-4.32-1.57-7.7-2.09-10-.52-2.28-.83-3.5-.83-3.5-.2-.77.27-1.56,1.04-1.76.74-.19,1.49.23,1.73.94h0Z"/>
        </g>
        <g>
          <path class="cls-117" d="m245.23,574.06c4.88,3.76-37.36-79.17-32.34-194.91,2.37-54.54,15.73-120.76-9.18-152.39-20.73-26.33-108.69-30.26-137.62-30.84-3.61-.07-5.68,4.09-3.43,6.92,11.09,13.95,34.31,46.27,36.33,74.48,2.67,37.19,31.57,66.38,60.29,78.54,28.72,12.15,44.19,21.42,49.04,72.29,4.85,50.87,23.03,135.21,36.91,145.9Z"/>
          <path class="cls-50" d="m102.3,218.76s.86.18,2.42.59c1.56.41,3.85,1.03,6.71,1.98,2.86.95,6.3,2.18,10.18,3.8,3.87,1.62,8.21,3.56,12.76,6.04,4.56,2.46,9.38,5.38,14.24,8.82,4.85,3.45,9.78,7.4,14.43,11.99,4.65,4.58,9.06,9.75,12.93,15.45,3.86,5.7,7.15,11.93,9.72,18.46l.93,2.46c.32.82.62,1.64.86,2.48.51,1.67,1.05,3.34,1.51,5.02.87,3.29,1.74,6.56,2.6,9.81.84,3.27,1.67,6.51,2.48,9.71.77,3.21,1.54,6.38,2.29,9.5,1.48,6.24,2.85,12.29,4.06,18.05,1.22,5.75,2.32,11.2,3.27,16.25.46,2.52.91,4.94,1.33,7.24.39,2.31.75,4.5,1.1,6.55.66,4.12,1.22,7.71,1.65,10.68.44,2.96.72,5.3.91,6.9.18,1.6.28,2.46.28,2.46.06.54-.33,1.04-.87,1.1-.52.06-.99-.29-1.09-.8v-.03s-.16-.83-.45-2.4c-.31-1.57-.77-3.86-1.34-6.79-1.15-5.85-2.98-14.18-5.23-24.15-1.16-4.98-2.42-10.37-3.75-16.07-1.4-5.69-2.87-11.68-4.4-17.89-1.6-6.18-3.25-12.57-4.93-19.06-.88-3.25-1.76-6.52-2.64-9.8-.45-1.6-.97-3.17-1.44-4.77-.22-.8-.5-1.58-.8-2.36l-.87-2.34c-4.76-12.43-12.43-23.63-21.22-32.57-4.39-4.48-8.98-8.49-13.6-11.97-4.61-3.49-9.22-6.47-13.6-9.02-4.39-2.53-8.5-4.71-12.23-6.47-3.73-1.77-7.05-3.16-9.82-4.23-2.77-1.06-4.96-1.86-6.47-2.35-1.51-.5-2.31-.73-2.31-.73-.42-.12-.67-.56-.55-.98.11-.41.52-.65.93-.57h0Z"/>
        </g>
        <g>
          <path class="cls-118" d="m242.5,571.95c3.5,1.62-21.17-36.1-24.73-70.29-3.56-34.19-14.4-92.29-45.82-125.73-31.42-33.43-63.97-34.91-103.07-.92-32.59,28.32-53.08,42.83-65.39,45.98-3.05.78-4.43,4.34-2.79,7.02,8.76,14.27,33.1,46.81,70.84,42.42,48.14-5.59,105.01-40.1,124.24-14.86,19.23,25.25,17.72,40.02,18.93,52.41,1.21,12.38,4.6,53.27,27.79,63.96Z"/>
          <path class="cls-55" d="m84.83,416.33s.48-.5,1.37-1.44c.9-.93,2.25-2.26,4.03-3.87,3.56-3.24,8.88-7.65,15.92-12.09,3.53-2.2,7.5-4.39,11.92-6.31,4.43-1.89,9.3-3.53,14.59-4.41,1.31-.25,2.67-.35,4.02-.51.68-.03,1.37-.07,2.06-.1.69-.04,1.38-.06,2.08-.03.7.02,1.4.04,2.1.05l2.11.19c.71.04,1.41.18,2.11.3.73.14,1.36.19,2.16.41,5.11,1.15,10.75,2.98,15.84,5.27,5.11,2.44,9.9,5.51,14.2,9.04,1.02.94,2.04,1.87,3.06,2.8.5.47,1.03.91,1.49,1.41l1.38,1.51c.91,1.01,1.85,1.98,2.7,3,.81,1.06,1.62,2.11,2.42,3.15.4.52.79,1.04,1.19,1.56.35.54.71,1.08,1.06,1.62.7,1.08,1.4,2.14,2.08,3.2,1.3,2.15,2.44,4.32,3.61,6.4,1.01,2.15,1.99,4.25,2.94,6.28.87,2.06,1.64,4.07,2.41,5.99.4.95.74,1.91,1.04,2.85.31.94.62,1.85.91,2.74.58,1.79,1.2,3.46,1.61,5.08.45,1.61.86,3.12,1.25,4.51.39,1.39.74,2.67.99,3.84,1.05,4.67,1.66,7.34,1.66,7.34.11.48-.19.95-.67,1.06-.45.1-.9-.16-1.04-.6v-.04s-.8-2.59-2.19-7.13c-.64-2.28-1.68-4.97-2.72-8.09-.49-1.57-1.19-3.18-1.85-4.9-.7-1.7-1.31-3.55-2.19-5.37-.83-1.84-1.66-3.77-2.59-5.73-1-1.92-2.03-3.91-3.1-5.95-1.2-1.95-2.34-4.02-3.65-6.03-.68-.98-1.38-1.98-2.07-2.98-.35-.5-.7-1.01-1.05-1.51-.39-.48-.78-.96-1.17-1.44-.78-.96-1.57-1.93-2.37-2.9-.82-.95-1.72-1.83-2.59-2.76l-1.31-1.39c-.44-.46-.95-.86-1.42-1.29-.96-.85-1.92-1.7-2.89-2.56-4.06-3.19-8.52-5.95-13.25-8.2-4.87-2.12-9.62-3.68-14.98-4.86-2.33-.47-4.87-.88-7.32-.86-.62-.03-1.23-.03-1.85,0-.61.03-1.23.05-1.84.08-1.22.14-2.44.2-3.63.43-4.81.69-9.4,2.08-13.61,3.76-4.24,1.63-8.13,3.57-11.62,5.52-3.52,1.93-6.63,3.92-9.36,5.73-2.73,1.82-5.04,3.51-6.93,4.92-1.88,1.43-3.33,2.58-4.32,3.38-.96.81-1.48,1.24-1.48,1.24l-.03.02c-.39.33-.97.27-1.3-.11-.3-.36-.28-.89.04-1.23Z"/>
        </g>
      </g>
      <g>
        <path class="cls-24" d="m317.7,41.98c-1.68-14.34,14.65-34.58,44.18-16.7.81-6.79,37.86-27.92,55.02,16.53,2.93-10.78,29.83-5.37,34.67,12.85,10.11-4.5,34.42,18.08,2.25,21.98-41.09,4.98-135.23,3.54-152.11-21.12-16.88-24.66,16-13.54,16-13.54Z"/>
        <path class="cls-25" d="m494.15,93.34c-.93-7.93,8.1-19.11,24.42-9.23.45-3.75,20.93-15.43,30.41,9.14,1.62-5.96,16.49-2.97,19.16,7.1,5.59-2.49,19.02,9.99,1.24,12.15-22.71,2.75-74.74,1.95-84.07-11.67-9.33-13.63,8.84-7.48,8.84-7.48Z"/>
      </g>
      <g>
        <g>
          <path class="cls-59" d="m493.39,650.5s-1.75,9.37-2.65,18.66c-.35,3.63,2.42,6.81,6.06,7,12.37.63,38.84,1.89,48.35,1.56,1.43-.05,2.38-1.5,1.86-2.84h0c-.43-1.12-1.28-2.03-2.36-2.54l-43.55-20.52-7.71-1.32Z"/>
          <path class="cls-8" d="m492.09,644.97l1.23,11.24s7.63,3.64,12.9-.33l-3.05-12.55-11.07,1.63Z"/>
          <path class="cls-13" d="m495.1,433.82c-.6,2.93-4.49,146.34,10.23,210.77.24,1.05-.3,2.13-1.3,2.53-2.36.94-6.98,2.29-12.51,2.42-1.71.04-3.23-1.09-3.7-2.73-4.24-14.96-24.53-89.88-26.59-161.29-2.3-79.79.03-2.72.03-2.72l2.27-49.29,31.58.31Z"/>
          <path class="cls-22" d="m443.03,654.92s-2.69,4.72-5.36,17.29c-.48,2.27,1.09,4.46,3.39,4.71,4.08.44,10.37,1.02,15.41,1.03,2.32,0,4.16-2,3.9-4.31-.51-4.6-2.18-12.16-7.5-18.09l-9.84-.63Z"/>
          <path class="cls-106" d="m440.85,640.45l2.95,17.02s3.06,2.32,9.16.72l-1.31-18.29-10.8.56Z"/>
          <path class="cls-81" d="m434.37,437.64c-13.26,75.56.94,187.08,5.87,208.92.3,1.34,1.37,2.37,2.72,2.61,2.29.4,6.07.75,9.81-.3,1.29-.36,2.2-1.51,2.27-2.85.86-17.62.65-125.81,12.74-168.46.61-2.16,1.95-4.04,3.8-5.32l22.83-15.91,1.99-26.04-62.03,7.35Z"/>
          <g>
            <path class="cls-7" d="m515.65,295c-37.57-.98-79.14,9.11-79.14,9.11-11.83,65.26-3.3,140.73-3.3,140.73,29.02,7.91,61.96-4.07,61.96-4.07,5.1-27.27,28.39-103.95,28.39-103.95,18.38-2.1,33.56-7.26,46.08-14.14-9.4-11.1-13.74-25.16-15.61-33.46-13.33,4-26.79,6.08-38.38,5.78Z"/>
            <path class="cls-32" d="m627.18,240.71c-3.65-4.49-8.34-2.43-8.34-2.43-5.75,23.31-34.93,41.97-64.81,50.95,1.87,8.3,6.21,22.36,15.61,33.46,49.71-27.33,57.54-81.98,57.54-81.98Z"/>
          </g>
          <g>
            <path class="cls-70" d="m626.27,241.83c.37,1.23-4.12,3.06-6.7-1.99-.07-2.41-1.43-12.73.02-14.68,7.76-10.37,22.74-23.32,22.74-23.32,2.49,2.5.4,4.91.4,4.91l-7.28,7.44c1.48,2.74,3.3,5.05,4.13,8.36.63,2.5.2,5.16-1.08,7.42-1.29,2.27-3.04,5.21-4.69,7.51-3.13,4.36-7.53,4.35-7.53,4.35Z"/>
            <path class="cls-92" d="m632.25,219.03l-6.62,5.5-2.11,5.52,5.79,6.55s2.07-10.98,3.56-13.34c1.49-2.37.74-3.52-.62-4.23Z"/>
          </g>
          <path class="cls-63" d="m450.57,340.64l-14.07-36.53s-35.33,23.52-41.39,53.7c6.63.55,18.68,2.39,30.44,8.47,2.73-14.25,25.02-25.64,25.02-25.64Z"/>
          <path class="cls-105" d="m480.92,375.17s-39.62,21.9-52.74,2.75c-2.72-3.98-3.35-7.91-2.63-11.64-11.76-6.08-23.81-7.92-30.44-8.47-1.83,9.1-1,18.8,4.26,28.65,22.89,42.83,86.67-1.53,86.67-1.53l-5.12-9.77Z"/>
          <path class="cls-89" d="m477.87,264.13l-12.29,34.47c-.2.57.03,1.21.55,1.51,3.24,1.83,14.94,7.15,29.17-1.68,1.48-.92,2.5-2.44,2.74-4.16l4.16-29.89-24.34-.23Z"/>
          <g>
            <path class="cls-72" d="m504.19,232.35s12.89,24.84,11.12,34.81c-1.78,9.97-18.04,9.1-32.18.85l-9.68-26.78,30.74-8.88Z"/>
            <path class="cls-119" d="m483.89,254.92c.58-.25.8-.96.46-1.49-1.04-1.62-2.98-4.91-3.58-7.79,0,0-2.35-1.53,6.04-3.46,8.39-1.92,20.9-4.91,23.59-12.01,2.62-6.92-3.93-24.45-14.78-10.64-.41.53-1.21.53-1.61,0-1.74-2.3-6.31-7.1-12.75-4.28-6.03,2.64-6.75,7.03-6.69,9.25.02.65-.57,1.15-1.21,1.03-3.03-.61-10.31-1.17-13.78,6.26-2.86,6.13-1.07,9.63.57,11.35.53.56.29,1.46-.45,1.68-2,.59-4.59,2.26-4.38,6.93.29,6.46,7.52,5.96,9.58,5.69.34-.04.68.07.9.33,1.74,1.97,9.61,10.33,18.2,11.41.74.09,1.33-.64,1.09-1.35l-3.62-10.85c-.17-.5.08-1.05.57-1.26l1.85-.8Z"/>
            <path class="cls-99" d="m485.37,256.47s-9.29-6.5-10.02-1.11c-.73,5.4,8.34,7.9,12.87,5.93l-2.85-4.83Z"/>
          </g>
          <g>
            <g>
              <path class="cls-29" d="m472.82,409.78l21.58-75.38c.24-.86.97-1.48,1.86-1.58,3.91-.46,15.24-1.74,28.33-2.84,15.76-1.33,34.06-2.41,45-1.49,1.55.13,2.49,1.78,1.8,3.17-6.22,12.58-31.8,63.76-44.61,80.53-.42.56-1.08.88-1.78.87l-50.08-.47c-1.46-.01-2.5-1.41-2.1-2.81Z"/>
              <path class="cls-103" d="m478.04,391.57s-3.01-12.36-1.79-16.75c1.21-4.39,3.56-10.03,11.4-8.77,7.83,1.25,17.07,4.55,17.07,4.55,0,0-.47,5.71-6.42,3.87l3.69,2.86s-.53,4.57-5.56,2.13l3.43,3.79s-2.16,3.76-5.86,1.35c-3.7-2.41-5.47,8.47-15.96,6.98Z"/>
            </g>
            <path class="cls-104" d="m523.15,352.48c0,3.5,2.84,6.34,6.34,6.34s6.34-2.84,6.34-6.34-2.84-6.34-6.34-6.34-6.34,2.84-6.34,6.34Z"/>
            <path class="cls-4" d="m496.61,356.58l-1.13-.33,4.39-14.91c.69-2.34,2.58-4.09,4.92-4.58,13.9-2.9,51.74-3.51,52.12-3.52l.02,1.18c-.38,0-38.11.62-51.9,3.49-1.92.4-3.47,1.84-4.03,3.76l-4.39,14.91Z"/>
          </g>
        </g>
        <g>
          <path class="cls-61" d="m241.4,567.6c-2.3,3.4-11.45,80.49-12.88,108.96-.1,1.93,1.44,3.53,3.37,3.53h0c1.66,0,3.08-1.21,3.33-2.85l16.73-107.19-10.55-2.45Z"/>
          <path class="cls-41" d="m314.93,567.6c2.3,3.4,11.45,80.49,12.88,108.96.1,1.93-1.44,3.53-3.37,3.53h0c-1.66,0-3.08-1.21-3.33-2.85l-16.73-107.19,10.55-2.45Z"/>
          <path class="cls-100" d="m227.57,561.59v.84c-.06,6.05,5.15,11.01,11.67,11.12l77.31,1.32c6.43.11,11.79-4.54,12.1-10.49l.04-.77c.33-6.21-4.95-11.44-11.65-11.56l-77.34-1.39c-6.62-.12-12.07,4.8-12.13,10.93Z"/>
        </g>
        <g>
          <g>
            <path class="cls-82" d="m390.43,673.76c-13.74,0-19.82-1.18-22.54-2.25.53,2.26,2.54,4.04,5.08,4.04h48.62c1.64,0,2.67-1.57,2.28-2.99-5.54.45-17.31,1.2-33.43,1.2Z"/>
            <path class="cls-39" d="m423.86,672.56c-.08-.29-.19-.57-.4-.83-3.7-4.73-11.14-12.15-21.26-12.01-14.83.21-19.99,1.82-31.52.09l-2.72,9.01c-.28.92-.28,1.84-.08,2.69,2.72,1.08,8.8,2.25,22.54,2.25,16.12,0,27.89-.76,33.43-1.2Z"/>
          </g>
          <path class="cls-30" d="m374.02,650.1l-3.34,11.35s7.39,3.36,13.89.66l1.28-9.83-11.83-2.18Z"/>
          <g>
            <path class="cls-57" d="m474.79,666.62c-10.71,8.61-16.19,11.5-18.98,12.37,1.82,1.42,4.5,1.54,6.48-.05l37.9-30.45c1.28-1.03,1.1-2.89-.08-3.74-4.04,3.82-12.75,11.78-25.31,21.87Z"/>
            <path class="cls-101" d="m500.11,644.74c-.24-.17-.51-.32-.83-.39-5.83-1.35-16.26-2.45-24.06,4-11.43,9.45-14.45,13.93-24.51,19.81l3.5,8.69c.36.89.92,1.6,1.61,2.14,2.79-.87,8.26-3.76,18.98-12.37,12.57-10.1,21.27-18.06,25.31-21.87Z"/>
          </g>
          <path class="cls-53" d="m302.66,520.83s82.28,6.72,99.16,14.66c16.88,7.95-13.77,119.31-13.77,119.31,0,0-4.6,2.21-14.82-.97,0,0,10.49-82.18,2.68-100l-89.09-14.57,15.84-18.43Z"/>
          <path class="cls-27" d="m442.53,652.52c.76.7,8.18,15.64,8.18,15.64,0,0,8.25-1.79,9.93-7.01l-7.42-13.49-10.68,4.85Z"/>
          <path class="cls-67" d="m253.1,520.14s-2.68,6.45-2.57,15.03c.15,11.86,9.68,21.48,21.53,22.07l97.27,4.44c2.05.09,3.79,1.52,4.31,3.51,2.29,8.84,13.46,35.99,68.07,90.17,1.45,1.44,3.72,1.69,5.45.59l7.77-4.91c.82-.52,1.08-1.59.59-2.42l-56.63-96.71c-2.97-4.91-7.76-8.46-13.32-9.88l-82.9-21.19-49.56-.69Z"/>
          <path class="cls-94" d="m348.96,369.07s-10.42,18.42-21.04,27.35l21.96,12.25s4.95-19.5,16.25-25.22l-17.17-14.39Z"/>
          <path class="cls-110" d="m251.33,520.83s26.26,6.4,51.32,0c0,0,35.07-47.15,48.64-59.98,0,0,21.64,34.15,69.82,38.99l2.69-6s-38.35-17.68-50.16-44.84c-11.81-27.16-16.55-38.75-27.29-45.84-6.69-4.41-10.7-7.43-12.77-9.08-1.13-.9-2.7-1-3.93-.25-11.4,6.95-65.04,43.68-78.32,127Z"/>
          <path class="cls-98" d="m349.87,461.15c-.79,0-1.58-.36-2.1-1.04-8.45-11.01-13.15-23.16-13.35-23.67-.52-1.36.16-2.89,1.52-3.42,1.36-.52,2.89.16,3.42,1.52.05.12,4.64,11.96,12.61,22.34.89,1.16.67,2.82-.49,3.71-.48.37-1.05.55-1.61.55Z"/>
          <path class="cls-14" d="m418.22,490.7l5.42-1.45,16.46-3.81c1.98-.46,4.06-.11,5.79.98l14.16,8.91-39.09-.07-2.74-4.56Z"/>
          <g>
            <path class="cls-113" d="m365.5,341.44s10.13,16.83,11.88,26.14c1.76,9.3,4.58,15.12-6.01,18.44-10.59,3.32-20.43-.88-26.61-9.57,0,0-9.65-13.37-8.68-19.49.96-6.12,29.42-15.52,29.42-15.52Z"/>
            <path class="cls-79" d="m347.59,369.25l1.37-.18s-7.17-10.84-2.48-13.52c4.69-2.69,23.81-9.28,27.13-16.81,3.2-7.26-1.59-15.46-7.36-17.17-.37-.11-.75.11-.88.46l-.34.91c-.23.63-1.11.65-1.38.04h0c-.25-.58-1.08-.6-1.35-.03-1.02,2.26-4.09,6.11-13.28,9.09-13.05,4.23-21.17,10.81-20.17,20.08.06.59-.52.99-1.06.75-1.07-.47-2.68-.55-4.56,1.51-3.26,3.57-.71,11.38,8.21,16.91.42.26.5.86.12,1.18-1.33,1.14-3.21,3.69,2.82,5.96,6.17,2.32,9.54,1.54,10.78,1.04.33-.13.53-.48.46-.83l-1.58-8.12c-.08-.42.21-.82.63-.88l2.92-.38Z"/>
            <path class="cls-116" d="m348.15,370.92s-4.47-11.02-9.16-7.14c-4.69,3.87,4.34,12.43,8.51,12.32l.66-5.17Z"/>
          </g>
        </g>
        <g>
          <path class="cls-115" d="m403.11,503c.06,0,.13,0,.19,0l83.51-.08c2.06,0,3.74-1.67,3.73-3.73,0-2.06-1.68-3.76-3.74-3.73l-83.51.08c-2.06,0-3.74,1.67-3.73,3.73,0,2,1.58,3.63,3.55,3.72Z"/>
          <path class="cls-40" d="m519.16,421.21c-.03.06-.06.11-.09.17l-35.14,75.76c-.87,1.87-.06,4.09,1.81,4.96,1.87.87,4.12.06,4.96-1.82l35.14-75.76c.87-1.87.06-4.09-1.81-4.96-1.81-.84-3.95-.1-4.87,1.65Z"/>
        </g>
        <g>
          <g>
            <rect class="cls-56" x="729.04" y="579.14" width="8.81" height="95.32"/>
            <path class="cls-46" d="m772.05,676.3h-77.2c0-3.17,2.57-5.74,5.74-5.74h65.73c3.17,0,5.74,2.57,5.74,5.74h0Z"/>
            <rect class="cls-2" x="686.44" y="557.78" width="97.07" height="27.53" rx="9.48" ry="9.48"/>
          </g>
          <g>
            <path class="cls-28" d="m668.37,515.58s-13.1,2.03-27.82,11.87c-2.32,1.55-3.59,4.25-3.24,7.02,1.76,13.97,9.01,59.18,32.92,103.33,1.26,2.33,1.62,5.04,1.07,7.63l-4.15,19.33-7.7,7.22h19.84l13.21-35.75-5.65-1.79c-4.38-1.38-7.38-5.41-7.46-10.01l-.66-38.35c.57-17.09-10.48-28.87-10.48-28.87l31.69-1.54-31.55-40.1Z"/>
            <path class="cls-33" d="m651.69,675.47c-1.81,2.36,19.45,5.49,30.19.31,0,0,14.89-25.9,14.89-39.23,0,0-1.18-2.72-9.92-2.1,0,0-5,30.67-10.28,34.1-5.28,3.44-14.77.35-14.77.35,0,0-7.44,3.09-10.11,6.57Z"/>
            <path class="cls-78" d="m695.92,557.78c-.17-.29-34.12-4.08-34.12-4.08,0,0,1.11,10.32-2.36,24.53-3.47,14.21-53.31,75.77-53.31,75.77l5.23,16.57c-16.16,5.63-32.05,6.53-47.69,2.87l32.39-19.44s30.31-103.29,48.88-121.72l34.03-11.77,16.96,37.28Z"/>
            <path class="cls-74" d="m772.05,497.67s19.56,29.09,21.16,42.36c1.6,13.27-5.36,18.66-25.88,19.55-20.52.89-75.31.87-75.31.87l-46.76-39.96s34.07-12.16,42.93-15.6c8.86-3.44,83.85-7.23,83.85-7.23Z"/>
            <path class="cls-80" d="m609.38,664.98s5.63,5.45,1.83,11.51c0,0-44.57,7.9-56.67,4.32,0,0,2.51-5.74,16.14-12.26l-1.01.77c-1.27.98-.53,3.01,1.08,2.92,8.98-.51,27.56-2.16,38.64-7.26Z"/>
          </g>
          <g>
            <path class="cls-26" d="m687.33,313.19c39.98-6.8,58.8,25.81,57.43,32.66-.18.91.67,1.68,1.57,1.44,4.59-1.24,14.73-2.79,21.02,5.08,5.55,6.95,1.4,13.52-1.98,17.12-.82.87-.13,2.28,1.05,2.13,8.44-1.07,26.78-1.32,29.78,15.86,2.8,16.02-8.35,20.54-14.96,21.81-1.12.22-1.38,1.69-.42,2.3,3.3,2.09,7.12,6.42,5.58,14.95-2.42,13.38-28.65,12.28-31.71,12.11-.19-.01-.38-.07-.55-.16l-42.01-23.96c-.33-.19-.55-.51-.62-.88l-8.48-48.98c-.07-.4.06-.8.33-1.09l-27.38-38.65c-9.94-1.46,10.89-11.66,11.36-11.74Z"/>
            <path class="cls-47" d="m719.16,493.82s-22.78-21.69-33.99-36.05c-6.06-7.76-7.96-17.99-5.16-27.43,5.12-17.24,14.21-35.1,15.04-37.88,1.27-4.26,26.81-4.08,26.81-4.08,0,0,50.25,32.61,70,87.86l-22.17,6.9s-13.12-22.01-26.09-36.01c0,0,22.43,29.63,23.22,41.77l-47.67,4.93Z"/>
            <path class="cls-114" d="m691.96,368.65c.27.89,6.93,22.98,7.45,23.44.52.46,14.62,1.22,21.25-3.32l-16.46-32.19-12.25,12.07Z"/>
            <g>
              <path class="cls-15" d="m665.24,340.25s-3.22,12.66,5.69,29.68c8.91,17.03,19,17.01,24.52,11.56,5.52-5.45,12.32-14.7,10.7-31.16-1.62-16.46-36.26-26.19-40.91-10.08Z"/>
              <path class="cls-54" d="m693.82,351.23s-14.79-22.6-28.65-4.81l-.25,6.47s-16.24-1.93-13.4-16.82c2.84-14.89,16.88-24.2,34.95-17.75,18.07,6.45,28.43,13.06,29.6,26.02,1.17,12.95-9.14,10.11-9.14,10.11,0,0-3.36-9.12-8.14-10.07-4.78-.95-3.54,6.16-3.54,6.16l-1.43.68Z"/>
              <path class="cls-35" d="m697.61,350.93s-7.67-11.58.19-13.3c7.86-1.73,6.64,11.28,5.79,16.09l-5.98-2.79Z"/>
            </g>
            <path class="cls-64" d="m672.76,495.43l16.73-16.13,23.15,9.78s23.04,3.57,36.23,0l13.19-3.57,29.8-9.28,4.68,13.23c1.19,3.36,0,7.09-2.91,9.15-2.58,1.83-5.6,3.85-7.53,4.69-3.92,1.72-96.75-1.19-96.75-1.19l-16.6-6.68Z"/>
          </g>
          <g>
            <path class="cls-66" d="m736.08,503.04c-.07,0-.15,0-.22,0l-97.07-.11c-2.4,0-4.34-1.95-4.34-4.35,0-2.4,1.96-4.38,4.35-4.34l97.07.11c2.4,0,4.34,1.95,4.34,4.35,0,2.32-1.83,4.22-4.13,4.34Z"/>
            <path class="cls-48" d="m551.53,414.9h80.84c5.96,0,11.39,3.44,13.94,8.84l37.37,79.25h-100.46c-3.84,0-7.3-2.35-8.71-5.92l-28.98-73.33c-1.67-4.24,1.45-8.83,6-8.83Z"/>
            <path class="cls-76" d="m608.48,455.54c1.75,5.44.46,10.73-2.89,11.81-3.35,1.08-7.48-2.46-9.23-7.9-1.75-5.44-.46-10.73,2.89-11.81,3.35-1.08,7.48,2.46,9.23,7.9Z"/>
          </g>
        </g>
        <g>
          <g>
            <path class="cls-83" d="m846.75,664.28s1.02,5.66,1.42,12.37c.17,2.86-1.95,5.35-4.8,5.62-9.94.96-32.55,2.74-46.99.66-2.02-.29-2.83-2.78-1.33-4.17,5.95-5.55,20.33-16.34,44-18.7l7.7,4.21Z"/>
            <path class="cls-87" d="m851.69,651.53l-5.02,12.31c-.69,1.69-2.4,2.74-4.21,2.55-1.23-.13-2.69-.36-4.1-.79-2.83-.86-4.43-3.87-3.59-6.7l3.79-12.68,13.13,5.32Z"/>
            <path class="cls-49" d="m937.57,674.09s-10.06,8.42-13.98,19.21c-1.08,2.97,1.2,6.1,4.36,6.1h20.7c3.03,0,5.35-2.73,4.83-5.71-1.32-7.45-5.12-19.57-15.91-19.6Z"/>
            <path class="cls-65" d="m950.03,663.14s-2.03,8.99-3.59,14.94c-.28,1.08-1.43,1.67-2.49,1.29-3.13-1.12-5.68-1.62-7.53-1.37-.86.11-1.6-.6-1.62-1.46l-.19-14.94,15.42,1.53Z"/>
            <path class="cls-20" d="m896.53,460.77l-61.18,186.66s11.74,7.69,17.33,7.37l72.67-150.01s12.72,92.43,6.56,158.79l20.82,1.59s33.85-169.58,8.21-227.66l-64.4,23.27Z"/>
            <path class="cls-84" d="m924.95,503.17s.05,0,.07,0c.32-.04.55-.34.51-.66l-2.37-18.85c-.04-.32-.33-.55-.66-.51-.32.04-.55.34-.51.66l2.37,18.85c.04.3.29.52.59.52Z"/>
          </g>
          <path class="cls-60" d="m885.06,296.52s49.57,4.4,42.56,39.72c0,0,27.4,51.57,40.21,112.31.42,1.98-.91,3.9-2.9,4.25l-82.55,14.13c-2.28.39-4.47-1.03-5.05-3.27l-19.72-76.23-7.69,35.44-24.42-6.36,20.56-104.15s2.87-15.2,39.01-15.85Z"/>
          <path class="cls-107" d="m857.18,384.02s.09,0,.13-.01c.33-.07.54-.4.47-.73l-6.88-31.6c-.07-.33-.4-.54-.73-.47-.33.07-.54.4-.47.73l6.88,31.6c.06.29.32.48.6.48Z"/>
          <path class="cls-71" d="m862.17,478.05c2.6-1.43,5.64-1.83,8.52-1.11l5.74,1.43c1.22.3,2.43-.54,2.57-1.79l5.94-52.9c7.43,3.53,18.15,3.11,21.69,2.85l-13.68,62.37h-47.87l17.08-10.85Z"/>
          <path class="cls-90" d="m734.97,363.29l1.45-4.81c.83-2.77,2.88-5.01,5.56-6.08l26.17-10.52s.4-3.36-5.53-5.64c-5.92-2.28-4.54-8.92-4.54-8.92,0,0,8.09,3.69,19.94,9.55,6.78,3.35,10.58,9.26,12.59,13.71l59.3,72.29-6.96,4.78c-9.15,6.29-21.75,3.2-26.95-6.61l-32.12-61.6c-16.13,4.85-32.45,5.77-48.91,3.85Z"/>
          <g>
            <path class="cls-93" d="m869,262.79l15.25,42.67s-13.5,10.56-23.35,6.99l-7.68-24.46s5.87-29.9,15.79-25.2Z"/>
            <g>
              <path class="cls-1" d="m844.81,232.96c-.41.58-12.84,45.62-12.84,45.62l25.87,6.55,18.12-40.94s-24.34-20.9-31.16-11.23Z"/>
              <path class="cls-68" d="m866.23,250.42l-7.85,22.3c-.1.29-.24.55-.41.8-1.07,1.52-5.12,6.47-9.94,2.02-4.37-4.04-8.42-7.67-12.16-8.32-1.68-.29-3.3.73-3.75,2.37-1.13,4.09-3.5,13.36-4.33,21.73-.17,1.7,1,3.23,2.68,3.55,5.05.96,15.76,2.67,24.71,2.03,1.21-.09,2.28-.81,2.78-1.92,2.46-5.39,10-21.73,12.8-25.96,2.63-3.97,9.09-3.86,11.8-3.63.89.08,1.76-.21,2.43-.8,2.37-2.08,6.88-7.39.53-13.73-1.33-1.33-1.3-3.47.07-4.76,2.72-2.56,5.63-7.11,1.09-12.75-4.62-5.73-10.71-4.81-14.44-3.44-1.51.55-3.16-.08-3.98-1.47-.47-.79-1.28-1.38-2.7-1.26-1.9.17-3.51-1.42-3.47-3.33.06-3.67-1.25-8.31-7.62-10.28-11.3-3.51-18.34,7.41-19.03,15.56-.69,8.15,11.78,11.25,19.11,10.7,5.57-.42,9.72,5.1,11.38,7.77.53.85.63,1.88.3,2.82Z"/>
              <path class="cls-109" d="m867.82,277.11s1.81-14.14,7.7-14.84c5.88-.7,11.61,4.13,5.77,12.07-7.27,9.88-13.46,2.77-13.46,2.77Z"/>
            </g>
          </g>
          <path class="cls-31" d="m901.83,427.32c3.38,0,5.8-.26,6.06-.29l.44-.05,18.05-84.16c.07-.33-.14-.66-.47-.73-.34-.07-.66.14-.73.47l-17.86,83.28c-2.69.24-17.03,1.19-24.6-4.18l15.64-73.12-3.26-6.15c-.16-.3-.53-.41-.83-.26-.3.16-.41.53-.26.83l3.05,5.76-15.71,73.45.31.24c5.47,4.11,14.29,4.89,20.17,4.89Z"/>
        </g>
        <g>
          <path class="cls-85" d="m360.7,683.91c-.41,0-.84-.09-1.24-.28-1.6-.75-2.33-2.77-1.65-4.51l65.96-167.36c.69-1.74,2.53-2.54,4.13-1.8,1.6.75,2.33,2.77,1.65,4.51l-65.96,167.36c-.51,1.3-1.67,2.08-2.89,2.08Z"/>
          <path class="cls-12" d="m435,683.91c-1.22,0-2.38-.78-2.89-2.08l-65.96-167.36c-.69-1.74.05-3.76,1.65-4.51,1.59-.75,3.44.05,4.13,1.8l65.96,167.36c.69,1.74-.05,3.76-1.65,4.51-.4.19-.83.28-1.24.28Z"/>
          <path class="cls-21" d="m808.34,683.91c-.41,0-.84-.09-1.24-.28-1.6-.75-2.33-2.77-1.65-4.51l65.96-167.36c.69-1.74,2.53-2.54,4.13-1.8,1.6.75,2.33,2.77,1.65,4.51l-65.96,167.36c-.51,1.3-1.67,2.08-2.89,2.08Z"/>
          <path class="cls-58" d="m882.65,683.91c-1.22,0-2.38-.78-2.89-2.08l-65.96-167.36c-.69-1.74.05-3.76,1.65-4.51,1.59-.75,3.44.05,4.13,1.8l65.96,167.36c.69,1.74-.05,3.76-1.65,4.51-.4.19-.83.28-1.24.28Z"/>
        </g>
        <g>
          <path class="cls-77" d="m798.77,499.94h95.53v-9.86h-95.53c2.04,0,2.04,9.86,0,9.86Z"/>
          <path class="cls-36" d="m893.13,499.94c.65,0,1.18-.53,1.18-1.18v-7.5c0-.65-.53-1.18-1.18-1.18h-96.09c-.65,0-1.18-.5-1.18-1.11s.53-1.11,1.18-1.11h102.74c2.28,0,4.13,1.85,4.13,4.13v6.3c0,2.15-1.74,3.89-3.89,3.89h-102.97c-.65,0-1.18-.5-1.18-1.11s.53-1.11,1.18-1.11h96.09Z"/>
        </g>
        <path class="cls-62" d="m908.15,506.58c.32-1.1-.12-2.24-1.19-3.1-1.08-.86-2.68-1.37-4.37-1.37H330.18c-2.22,0-4.29.75-5.49,1.99-1.2,1.24-1.36,2.8-.43,4.14l6.2,8.91c1.42,2.04,4.5,3.35,7.89,3.35h560.32c3.15,0,5.86-1.48,6.46-3.53l3.03-10.38Z"/>
      </g>
      <g>
        <g>
          <path class="cls-4" d="m1086.9,630.9c-1.5,0-2.88-.85-3.55-2.22l-3.8-7.82c-4.04-.59-7.99-1.69-11.77-3.29l-7.3,4.72c-1.41.92-3.26.83-4.58-.21l-9.79-7.67c-1.33-1.04-1.85-2.81-1.3-4.41l2.84-8.22c-2.45-3.29-4.46-6.85-6-10.64l-8.5-1.82c-1.65-.35-2.89-1.72-3.09-3.39l-1.5-12.35c-.2-1.67.68-3.29,2.2-4.03l7.81-3.8c.59-4.05,1.69-7.99,3.29-11.77l-4.72-7.3c-.91-1.42-.83-3.26.21-4.58l7.67-9.79c1.04-1.33,2.81-1.85,4.4-1.3l8.22,2.84c3.29-2.45,6.85-4.46,10.64-6l1.82-8.5c.36-1.65,1.72-2.89,3.38-3.09l12.35-1.5c1.68-.21,3.28.68,4.03,2.18l3.81,7.83c4.04.59,7.99,1.69,11.77,3.29l7.3-4.72c1.41-.91,3.25-.83,4.58.2l9.8,7.68c1.32,1.04,1.85,2.8,1.3,4.39l-2.84,8.23c2.45,3.29,4.46,6.85,6,10.64l8.5,1.82c1.65.35,2.89,1.72,3.09,3.39l1.5,12.35c.2,1.67-.68,3.29-2.2,4.03l-7.81,3.8c-.59,4.05-1.69,7.99-3.29,11.77l4.72,7.3c.91,1.42.83,3.26-.21,4.58l-7.67,9.79c-1.04,1.32-2.8,1.85-4.4,1.3l-8.23-2.84c-3.29,2.45-6.85,4.46-10.64,6l-1.82,8.5c-.36,1.65-1.72,2.89-3.38,3.09l-12.35,1.5c-.16.02-.32.03-.48.03Zm-19.64-20.37l1.55.72c4.17,1.93,8.59,3.17,13.13,3.67l1.7.19,4.58,9.42,9.17-1.11,2.2-10.24,1.61-.59c4.3-1.57,8.29-3.83,11.87-6.7l1.33-1.07,9.91,3.42,5.7-7.27-5.69-8.8.72-1.55c1.93-4.16,3.17-8.58,3.67-13.13l.19-1.7,9.42-4.58-1.11-9.17-10.24-2.2-.59-1.61c-1.57-4.3-3.83-8.29-6.7-11.88l-1.07-1.33,3.42-9.91-7.27-5.7-8.8,5.69-1.55-.72c-4.16-1.93-8.58-3.17-13.13-3.67l-1.7-.19-4.58-9.42-9.17,1.11-2.2,10.24-1.61.59c-4.3,1.57-8.29,3.83-11.87,6.7l-1.33,1.07-9.91-3.42-5.7,7.27,5.69,8.8-.72,1.55c-1.93,4.16-3.17,8.58-3.67,13.13l-.19,1.7-9.42,4.58,1.11,9.17,10.24,2.2.59,1.61c1.57,4.3,3.83,8.29,6.7,11.87l1.07,1.33-3.42,9.91,7.27,5.7,8.8-5.69Zm-10.14,6.56s0,0,0,0h0Zm-6.45-5.06h0s0,0,0,0Zm-.74-2.5h0s0,0,0,0Zm-.03-73.4h0s0,0,0,0Zm36.43,69.66c-7.37,0-14.47-2.44-20.36-7.06-6.96-5.46-11.38-13.3-12.45-22.08-2.2-18.13,10.76-34.67,28.89-36.86,8.78-1.06,17.45,1.35,24.42,6.81,6.96,5.46,11.38,13.3,12.45,22.08.28,2.34.32,4.71.1,7.05-.16,1.7-1.66,2.96-3.37,2.8-1.7-.16-2.96-1.67-2.8-3.37.17-1.9.15-3.83-.09-5.73-.87-7.14-4.46-13.51-10.12-17.95-5.66-4.44-12.72-6.4-19.84-5.54-14.74,1.79-25.27,15.23-23.49,29.97.87,7.14,4.46,13.51,10.12,17.95,5.66,4.44,12.71,6.39,19.85,5.54,4.85-.59,9.43-2.47,13.26-5.45,1.35-1.05,3.3-.81,4.35.54,1.05,1.35.81,3.3-.54,4.35-4.72,3.67-10.36,5.99-16.32,6.71-1.36.16-2.71.25-4.05.25Z"/>
          <path class="cls-4" d="m1086.6,586.97c-1.95,0-3.89-.41-5.73-1.22-3.45-1.53-6.11-4.32-7.46-7.84-1.36-3.52-1.27-7.37.27-10.82,1.53-3.45,4.32-6.1,7.84-7.46,3.53-1.36,7.37-1.26,10.82.27,3.45,1.53,6.11,4.32,7.46,7.84h0c2.81,7.28-.83,15.48-8.11,18.29-1.65.64-3.37.95-5.09.95Zm0-22.11c-.97,0-1.93.18-2.86.54-1.98.76-3.55,2.25-4.41,4.19-.86,1.94-.91,4.1-.15,6.08.76,1.98,2.25,3.55,4.19,4.41,1.94.86,4.1.91,6.08.15,4.09-1.58,6.13-6.18,4.56-10.27h0c-.76-1.98-2.25-3.55-4.19-4.41-1.03-.46-2.12-.69-3.22-.69Z"/>
        </g>
        <path class="cls-4" d="m998.12,550.47c-.33,0-.67-.06-.99-.19l-5.58-2.16c-1.08-.42-1.79-1.48-1.74-2.64l.14-3.75c-1.38-1.06-2.64-2.26-3.77-3.6l-3.73.31c-1.17.1-2.25-.55-2.73-1.61l-2.42-5.48c-.47-1.06-.21-2.32.65-3.11l2.74-2.54c-.23-1.73-.27-3.47-.12-5.2l-2.86-2.42c-.89-.76-1.2-1.99-.78-3.08l2.16-5.58c.43-1.09,1.52-1.78,2.66-1.74l3.74.14c1.06-1.39,2.27-2.65,3.6-3.77l-.31-3.73c-.09-1.17.56-2.27,1.63-2.73l5.47-2.41c1.08-.47,2.33-.21,3.12.65l2.54,2.74c1.72-.23,3.46-.27,5.2-.12l2.42-2.86c.76-.89,1.99-1.2,3.08-.78l5.58,2.16c1.08.42,1.79,1.48,1.74,2.64l-.14,3.75c1.38,1.06,2.65,2.27,3.76,3.6l3.73-.31c1.15-.1,2.27.55,2.74,1.63l2.41,5.46c.47,1.06.22,2.31-.63,3.1l-2.75,2.55c.23,1.72.27,3.47.12,5.2l2.86,2.42c.89.76,1.21,1.99.78,3.08l-2.16,5.57c-.42,1.08-1.48,1.78-2.64,1.74l-3.75-.14c-1.06,1.39-2.27,2.65-3.6,3.76l.31,3.73c.1,1.15-.55,2.25-1.62,2.73l-5.48,2.42c-1.07.47-2.32.21-3.12-.65l-2.54-2.74c-1.73.23-3.47.27-5.2.12l-2.42,2.86c-.53.63-1.3.97-2.09.97Zm-1.46-3.97s0,0,0,0h0Zm17.11-.41h.01s0,0-.01,0Zm-2.16-.44s0,0,0,0h0Zm-17.11-1.38l3.03,1.18,3.17-3.75,1.27.18c2.1.3,4.21.25,6.29-.14l1.26-.24,3.33,3.6,2.98-1.31-.41-4.89,1.02-.77c1.68-1.27,3.15-2.8,4.34-4.55l.72-1.06,4.9.19,1.18-3.03-3.75-3.17.18-1.27c.3-2.1.25-4.21-.14-6.29l-.24-1.26,3.6-3.33-1.31-2.98-4.89.41-.77-1.02c-1.27-1.68-2.8-3.14-4.55-4.34l-1.06-.72.19-4.9-3.04-1.18-3.17,3.75-1.27-.18c-2.1-.29-4.21-.25-6.29.14l-1.26.24-3.33-3.6-2.98,1.31.41,4.89-1.02.77c-1.68,1.27-3.14,2.8-4.34,4.55l-.72,1.06-4.9-.19-1.18,3.03,3.75,3.17-.18,1.27c-.29,2.1-.25,4.21.14,6.29l.24,1.26-3.6,3.33,1.31,2.98,4.89-.41.77,1.03c1.27,1.68,2.8,3.15,4.55,4.34l1.06.72-.19,4.9Zm21.44.87h0s0,0,0,0Zm-34.83-13.51h0s0,0,0,0Zm.44-2.18h0s0,0,0,0Zm46.53-1.05s0,0,0,0h0Zm-.29-12.81s0,0,0,0h0Zm-.49-4.34h0s0,0,0,0Zm-1.92-1.13s0,.01,0,.02v-.02Zm1.71-1.18h.02-.02Zm-34.82-7.12h0s0,0,0,0Zm23.84-.54s0,0,.01,0h-.01Zm-5.57-2.17s0,0,0,0h0Zm-14.97-.16s0,0,.01.01h-.01Zm8.98,40.29c-2.05,0-4.1-.38-6.07-1.14-4.17-1.62-7.47-4.77-9.27-8.86-1.81-4.1-1.91-8.65-.29-12.83s4.77-7.47,8.86-9.28c8.46-3.73,18.37.12,22.1,8.57.48,1.09.85,2.24,1.09,3.4.26,1.26-.55,2.49-1.81,2.74-1.25.26-2.48-.55-2.74-1.81-.17-.84-.44-1.67-.79-2.46-2.7-6.11-9.86-8.89-15.97-6.2-2.96,1.31-5.24,3.69-6.41,6.7-1.17,3.02-1.1,6.31.21,9.27,1.31,2.96,3.69,5.24,6.7,6.41,3.02,1.17,6.31,1.09,9.27-.21,2.01-.89,3.74-2.3,5-4.08.74-1.05,2.19-1.3,3.24-.56,1.05.74,1.3,2.19.56,3.24-1.75,2.47-4.14,4.42-6.92,5.65-2.17.96-4.46,1.43-6.76,1.43Z"/>
      </g>
      <g>
        <g>
          <path class="cls-52" d="m107.92,543.3l9.82,81.7c.61,5.1,5.71,9.04,11.93,9.22l149.24,4.37c6.21.18,11.62-3.44,12.69-8.48,3.85-18.24,11.63-60.8,7.08-88.55-.77-4.67-5.27-8.33-10.95-8.85-59.72-5.49-116.55-6.42-169.08-.57-6.64.74-11.37,5.67-10.71,11.16Z"/>
          <path class="cls-5" d="m117.37,547.54l9.05,75.26c.56,4.7,5.26,8.33,10.99,8.5l137.47,4.02c5.72.17,10.71-3.17,11.69-7.81,3.55-16.8,10.71-56,6.52-81.57-.71-4.3-4.85-7.67-10.09-8.16-55.01-5.06-107.36-5.91-155.75-.53-6.11.68-10.48,5.23-9.87,10.28Z"/>
          <path class="cls-4" d="m280.74,592.12c-.31,0-.63-.03-.95-.09-45.65-8.25-138.39-6.66-139.32-6.64-2.95.09-5.35-2.28-5.41-5.21-.05-2.93,2.28-5.35,5.21-5.4,3.84-.07,94.72-1.63,141.4,6.81,2.89.52,4.8,3.28,4.28,6.17-.46,2.57-2.7,4.37-5.22,4.37Z"/>
          <path class="cls-4" d="m241.54,626.05c-.43,0-.86-.05-1.3-.16-32.58-8.17-99.06-6.59-99.73-6.57-2.9.11-5.37-2.24-5.44-5.17s2.24-5.37,5.17-5.44c2.78-.07,68.61-1.64,102.59,6.89,2.84.71,4.57,3.6,3.86,6.44-.6,2.41-2.77,4.02-5.15,4.02Z"/>
          <path class="cls-4" d="m280.74,610.43c-.31,0-.63-.03-.95-.09-45.66-8.25-138.39-6.66-139.32-6.64-.03,0-.07,0-.1,0-2.89,0-5.25-2.31-5.31-5.21-.05-2.93,2.28-5.35,5.21-5.4,3.84-.07,94.72-1.63,141.4,6.81,2.89.52,4.8,3.28,4.28,6.17-.46,2.57-2.7,4.37-5.22,4.37Z"/>
        </g>
        <g>
          <path class="cls-9" d="m47.57,459.28l10.91,110.18c.68,6.88,6.34,12.19,13.25,12.44l165.82,5.89c6.9.25,12.91-4.64,14.1-11.44,4.28-24.6,12.92-81.99,7.86-119.41-.85-6.3-5.85-11.23-12.17-11.94-66.36-7.4-129.5-8.65-187.87-.77-7.37,1-12.63,7.65-11.9,15.05Z"/>
          <path class="cls-5" d="m58.06,465l10.05,101.49c.63,6.34,5.84,11.23,12.21,11.46l152.75,5.43c6.35.23,11.89-4.27,12.98-10.54,3.94-22.66,11.9-75.52,7.24-110-.78-5.81-5.39-10.35-11.21-11-61.13-6.82-119.29-7.97-173.06-.71-6.79.92-11.64,7.05-10.96,13.87Z"/>
          <path class="cls-4" d="m87.76,491.21c-3.96,0-7.32-3.05-7.64-7.07-.33-4.22,2.83-7.91,7.05-8.24,4.58-.36,112.32-8.71,135.96-5.55,4.2.56,7.15,4.42,6.59,8.62-.56,4.2-4.42,7.14-8.62,6.58-18.3-2.45-102.02,3.24-132.74,5.64-.2.02-.4.02-.6.02Z"/>
          <path class="cls-4" d="m89.32,519.68c-4.09,0-7.48-3.22-7.66-7.35-.18-4.23,3.11-7.81,7.34-7.98l105.2-4.43c4.23-.19,7.81,3.11,7.98,7.34.18,4.23-3.11,7.81-7.34,7.98l-105.2,4.43c-.11,0-.22,0-.33,0Z"/>
          <path class="cls-4" d="m90.64,543.79c-4.16,0-7.57-3.33-7.66-7.5-.09-4.23,3.27-7.74,7.5-7.83l46.69-1.01c4.27-.14,7.74,3.27,7.83,7.5.09,4.23-3.27,7.74-7.5,7.83l-46.69,1.01c-.06,0-.11,0-.17,0Z"/>
        </g>
      </g>
      <g>
        <path class="cls-4" d="m368.77,276.35c-13.7,0-28.64-1.05-38.51-3.06-7.45-1.51-11.36-3.4-11.96-5.77-2.06-8.16-8.79-69.37,2.33-78.99.14-.12.31-.18.5-.18,9.21.33,90.17,3.39,95.12,9.89,5.36,7.04-9.37,66.83-14.44,73.52-2.36,3.11-16.84,4.58-33.04,4.58Zm-47.4-86.54c-9.59,9.17-4.1,67.74-1.67,77.36.2.79,1.66,2.84,10.85,4.71,21.91,4.46,66.47,3.83,70.12-.98,2.38-3.14,7.15-19.04,10.87-36.2,4.12-19.05,5.52-33.01,3.57-35.57-3.43-4.5-57.81-8.03-93.73-9.31Z"/>
        <path class="cls-4" d="m340.04,259.91h-6.5c-.8,0-1.44-.65-1.44-1.44v-19.43c0-.8.65-1.44,1.44-1.44h6.5c.8,0,1.44.65,1.44,1.44v19.43c0,.8-.65,1.44-1.44,1.44Zm-5.05-2.89h3.61v-16.54h-3.61v16.54Z"/>
        <path class="cls-4" d="m352.84,259.91h-8.88c-.8,0-1.44-.65-1.44-1.44v-32.08c0-.8.65-1.44,1.44-1.44h8.88c.8,0,1.44.65,1.44,1.44v32.08c0,.8-.65,1.44-1.44,1.44Zm-7.43-2.89h5.99v-29.19h-5.99v29.19Z"/>
        <path class="cls-4" d="m369.57,259.91h-12.32c-.8,0-1.44-.65-1.44-1.44v-38.86c0-.8.65-1.44,1.44-1.44h12.32c.8,0,1.44.65,1.44,1.44v38.86c0,.8-.65,1.44-1.44,1.44Zm-10.88-2.89h9.44v-35.98h-9.44v35.98Z"/>
        <path class="cls-4" d="m391.87,259.91h-14.76c-.8,0-1.44-.65-1.44-1.44v-47.02c0-.8.65-1.44,1.44-1.44h14.76c.8,0,1.44.65,1.44,1.44v47.02c0,.8-.65,1.44-1.44,1.44Zm-13.31-2.89h11.87v-44.13h-11.87v44.13Z"/>
      </g>
      <g>
        <g>
          <g>
            <path class="cls-86" d="m1012.25,199.7l-4.94,78.96h29.6v-76.76c0-2.21-1.41-4.16-3.5-4.88-3.92-1.34-10.58-3.01-17.11-1.85-2.23.4-3.9,2.26-4.04,4.52Z"/>
            <g>
              <path class="cls-73" d="m975.19,199.32l3.28,79.26h28.04l2.12-80.15c.06-2.2-1.35-4.2-3.46-4.83-9.12-2.74-18.17-3.01-27.12,1.08-1.81.83-2.95,2.65-2.87,4.63Z"/>
              <g>
                <path class="cls-6" d="m982.71,253.21l.21,2.76c.06.84.79,1.47,1.63,1.42l14.69-.85c.77-.04,1.39-.65,1.45-1.42l.14-1.91c.07-.89-.64-1.66-1.54-1.66h-15.04c-.9,0-1.61.76-1.54,1.66Z"/>
                <path class="cls-6" d="m983.32,259.81v1.01c0,.78.65,1.4,1.43,1.37l14.07-.59c.73-.03,1.31-.63,1.31-1.37v-1.07c0-.78-.65-1.4-1.43-1.37l-14.07.65c-.73.03-1.31.64-1.31,1.37Z"/>
                <path class="cls-6" d="m1002.58,199.64c-.56-.61-1.33-.94-2.11-.91l-17.15.79c-1.55.07-2.76,1.5-2.72,3.22l.88,39.36c.04,1.63,1.2,2.96,2.67,3.06l15.11.97c.76.05,1.51-.25,2.08-.82.57-.57.9-1.37.92-2.22l1.17-41.12c.02-.87-.28-1.72-.84-2.33Z"/>
              </g>
            </g>
            <g>
              <path class="cls-6" d="m1016.06,256.2l.18,2.76c.06.84.67,1.47,1.39,1.42l12.52-.85c.66-.04,1.19-.65,1.23-1.42l.12-1.91c.06-.89-.55-1.66-1.31-1.66h-12.83c-.77,0-1.37.76-1.31,1.66Z"/>
              <path class="cls-6" d="m1016.58,262.8v1.01c0,.78.55,1.4,1.22,1.37l12-.59c.63-.03,1.12-.63,1.12-1.37v-1.07c0-.78-.56-1.4-1.22-1.37l-12,.65c-.62.03-1.11.64-1.11,1.37Z"/>
              <path class="cls-5" d="m1029.99,201.62l-9.77-1.12c-1.06-.12-2.12.21-2.93.9-.81.7-1.28,1.7-1.32,2.76l-1.16,37.93c-.03,1.05.37,2.06,1.11,2.81s1.75,1.15,2.8,1.12l9.29-.25c2-.05,3.61-1.64,3.7-3.64l1.64-36.56c.09-2-1.38-3.73-3.37-3.96Z"/>
            </g>
          </g>
          <g>
            <path class="cls-112" d="m1076.61,199.7l-4.94,78.96h29.6v-76.76c0-2.21-1.41-4.16-3.5-4.88-3.92-1.34-10.58-3.01-17.11-1.85-2.23.4-3.9,2.26-4.05,4.52Z"/>
            <g>
              <path class="cls-34" d="m1039.54,199.32l3.28,79.26h28.04l2.12-80.15c.06-2.2-1.35-4.2-3.46-4.83-9.12-2.74-18.17-3.01-27.12,1.08-1.81.83-2.95,2.65-2.87,4.63Z"/>
              <g>
                <path class="cls-6" d="m1047.06,253.21l.21,2.76c.06.84.79,1.47,1.63,1.42l14.69-.85c.77-.04,1.39-.65,1.45-1.42l.14-1.91c.07-.89-.64-1.66-1.54-1.66h-15.04c-.9,0-1.61.76-1.54,1.66Z"/>
                <path class="cls-6" d="m1047.67,259.81v1.01c0,.78.65,1.4,1.43,1.37l14.07-.59c.73-.03,1.31-.63,1.31-1.37v-1.07c0-.78-.65-1.4-1.43-1.37l-14.07.65c-.73.03-1.31.64-1.31,1.37Z"/>
                <path class="cls-6" d="m1066.94,199.64c-.56-.61-1.33-.94-2.11-.91l-17.15.79c-1.55.07-2.76,1.5-2.72,3.22l.88,39.36c.04,1.63,1.2,2.96,2.67,3.06l15.11.97c.76.05,1.51-.25,2.08-.82s.9-1.37.92-2.22l1.17-41.12c.02-.87-.28-1.72-.84-2.33Z"/>
              </g>
            </g>
            <g>
              <path class="cls-6" d="m1080.42,256.2l.18,2.76c.06.84.67,1.47,1.39,1.42l12.52-.85c.66-.04,1.19-.65,1.23-1.42l.12-1.91c.06-.89-.55-1.66-1.31-1.66h-12.83c-.77,0-1.37.76-1.31,1.66Z"/>
              <path class="cls-6" d="m1080.94,262.8v1.01c0,.78.55,1.4,1.22,1.37l12-.59c.63-.03,1.12-.63,1.12-1.37v-1.07c0-.78-.56-1.4-1.22-1.37l-12,.65c-.62.03-1.11.64-1.11,1.37Z"/>
              <path class="cls-5" d="m1094.35,201.62l-9.77-1.12c-1.06-.12-2.12.21-2.93.9-.81.7-1.28,1.7-1.32,2.76l-1.16,37.93c-.03,1.05.37,2.06,1.11,2.81.74.74,1.75,1.15,2.8,1.12l9.29-.25c2-.05,3.61-1.64,3.7-3.64l1.64-36.56c.09-2-1.38-3.73-3.37-3.96Z"/>
            </g>
          </g>
        </g>
        <rect class="cls-11" x="952.77" y="274.38" width="173.43" height="11.8" rx="4.2" ry="4.2"/>
      </g>
      <g>
        <path class="cls-10" d="m728.9,208.81c-.09-1.09-1.2-2.03-3.09-2.79,2.05-1.13,3.18-2.34,3.09-3.53-.29-3.6-11.68-5.61-25.43-4.5-13.76,1.11-24.67,4.92-24.38,8.52.09,1.09,1.2,2.03,3.09,2.79-2.05,1.13-3.18,2.34-3.09,3.53.09,1.09,1.2,2.03,3.09,2.79-2.05,1.13-3.18,2.34-3.09,3.53.09,1.09,1.2,2.03,3.09,2.79-2.05,1.13-3.18,2.34-3.09,3.53.13,1.59,2.43,2.87,6.14,3.71-.05,1.18-.02,2.46.09,3.89.54,6.63,7.99,11.82,17.85,11.82s18.39-7.08,18.49-13.73c.02-1.63-.05-3.06-.19-4.34,4.72-1.58,7.59-3.5,7.44-5.37-.09-1.09-1.2-2.03-3.09-2.79,2.05-1.13,3.18-2.34,3.09-3.53-.09-1.09-1.2-2.03-3.09-2.79,2.05-1.13,3.18-2.34,3.09-3.53Z"/>
        <g>
          <path class="cls-102" d="m697.1,230.61c-4.09,0-7.82-.3-10.91-.89-.18-.03-.3-.21-.26-.39.03-.18.21-.3.39-.26,4.83.93,11.29,1.13,18.18.57,5.64-.45,10.91-1.36,15.24-2.63.18-.05.36.05.41.22.05.18-.05.36-.22.41-4.38,1.28-9.7,2.2-15.38,2.65-2.56.21-5.06.31-7.44.31Z"/>
          <path class="cls-51" d="m697.17,224.28c-5.31,0-10.05-.5-13.4-1.45-.18-.05-.28-.23-.23-.41.05-.18.23-.28.41-.23,4.77,1.36,12.45,1.78,20.54,1.13,8-.65,15.47-2.27,19.97-4.35.17-.08.36,0,.44.16.08.17,0,.36-.16.44-4.57,2.11-12.12,3.75-20.19,4.4-2.52.2-5,.3-7.37.3Z"/>
          <path class="cls-88" d="m697.1,217.97c-5.73,0-10.75-.59-14.12-1.7-.17-.06-.27-.24-.21-.42.06-.17.24-.27.42-.21,4.7,1.55,12.66,2.06,21.3,1.36,8-.65,15.47-2.27,19.97-4.35.17-.08.36,0,.44.16.08.17,0,.36-.16.44-4.57,2.11-12.12,3.75-20.19,4.4-2.56.21-5.06.31-7.44.31Z"/>
          <path class="cls-42" d="m697.15,211.64c-4.55,0-8.68-.37-11.9-1.08-.18-.04-.29-.22-.25-.39.04-.18.22-.29.39-.25,4.83,1.07,11.8,1.35,19.1.76,7.93-.64,15.36-2.25,19.87-4.3.17-.08.36,0,.44.16.08.17,0,.36-.16.44-4.57,2.08-12.08,3.71-20.09,4.36-2.53.2-5.02.3-7.4.3Z"/>
        </g>
        <path class="cls-69" d="m669.85,176.9c-1.67-5.92-4.51-11.45-8.33-16.27-8.19-10.32-21.55-31.31-23.2-59.96-2.39-41.67,34.57-62.54,68.29-59.7,33.73,2.83,67,27.94,63.36,66.71-2.24,23.85-15.59,41.95-25.53,52.34-6.31,6.6-10.82,14.68-13.25,23.48-2.98,10.77-10.08,24.19-26.96,25.01-21.84,1.06-30.9-19.29-34.38-31.61Z"/>
        <path class="cls-95" d="m709.81,200.2l11.8-76.75c.24-1.59,1.02-2.65,1.74-2.38.72.27,1.1,1.78.86,3.36,0,.04-.02.09-.02.14l-13.44,76.04c-.1.57-.39.93-.65.81-.25-.12-.38-.66-.29-1.21Z"/>
        <path class="cls-91" d="m697.56,200.81l-11.8-76.75c-.24-1.59-1.02-2.65-1.74-2.38-.72.27-1.1,1.78-.86,3.36,0,.04.02.09.02.14l13.44,76.04c.1.57.39.93.65.81.25-.12.38-.66.29-1.21Z"/>
        <path class="cls-4" d="m721.53,116.86c-.3-.48-.99-.66-1.55-.4l-6.57,3.07-2.28-6.5c-.12-.34-.4-.64-.8-.8-.76-.31-1.66-.03-2.02.62v.02s-5.42,9.85-5.42,9.85l-5.01-14.03v-.02c-.13-.34-.39-.65-.77-.86-.84-.46-1.95-.24-2.48.49l-7.55,10.4c-.31.43-.2,1,.27,1.31.5.34,1.22.26,1.61-.17l6.65-7.42,5.99,13.34h0c.1.22.28.41.53.53.56.26,1.26.08,1.57-.41l5.78-9.27,2.18,4.69.02.04s.03.07.05.1c.3.48.99.66,1.55.4l7.8-3.64c.56-.26.76-.86.46-1.34Z"/>
        <path class="cls-4" d="m744.7,150.12c-.31,0-.62-.1-.89-.3-.66-.49-.8-1.43-.31-2.1,2.01-2.71,3.85-5.5,5.47-8.31.41-.72,1.33-.96,2.05-.55.72.41.96,1.33.55,2.05-1.68,2.91-3.59,5.8-5.66,8.6-.29.4-.75.6-1.2.6Z"/>
        <path class="cls-4" d="m754.41,133.46c-.2,0-.4-.04-.6-.12-.76-.33-1.11-1.21-.78-1.97,12.47-28.72,1.72-52.82,1.61-53.06-.35-.75-.02-1.64.74-1.99.75-.34,1.64-.01,1.99.74.47,1.03,11.42,25.57-1.58,55.5-.25.56-.8.9-1.38.9Z"/>
      </g>
      <path class="cls-4" d="m975.84,379.75c-1.89,0-3.74-.73-5.13-2.03-1.49-1.41-2.35-3.39-2.35-5.44v-44.96c0-1.3,1.06-2.36,2.36-2.36s2.36,1.06,2.36,2.36v44.96c0,.77.31,1.48.86,2,.56.53,1.28.79,2.05.74l53.28-3.17c1.45-.09,2.59-1.29,2.59-2.75v-44.14c0-.79-.32-1.51-.9-2.04-.58-.53-1.33-.77-2.12-.7l-44.32,4.39c-1.43.14-2.04,1.17-2.24,1.61-.2.44-.56,1.58.28,2.74l16.9,23.33c.52.72,1.32,1.13,2.2,1.14.92.04,1.69-.39,2.22-1.1l18.62-24.81c.78-1.04,2.26-1.25,3.3-.47,1.04.78,1.25,2.26.47,3.3l-18.62,24.81c-1.43,1.9-3.6,2.99-5.97,2.99h-.07c-2.4-.02-4.58-1.15-5.99-3.09l-16.9-23.33c-1.59-2.19-1.87-4.98-.76-7.45,1.11-2.47,3.38-4.1,6.08-4.37l44.32-4.39c2.1-.2,4.19.49,5.75,1.9,1.56,1.41,2.45,3.43,2.45,5.54v44.14c0,3.95-3.09,7.22-7.03,7.46l-53.28,3.17c-.15,0-.29.01-.44.01Z"/>
    </g>
  </g>
</svg>