<?xml version="1.0" encoding="UTF-8"?>
<svg id="Capa_2" data-name="Capa 2" xmlns="http://www.w3.org/2000/svg" viewBox="0 0 404 391.15">
  <defs>
    <style>
      .cls-1 {
        fill: #f0f0f0;
      }

      .cls-2 {
        fill: #fff;
      }

      .cls-3 {
        fill: #fafafa;
      }

      .cls-4 {
        fill: #f5f5f5;
      }

      .cls-5 {
        fill: #455a64;
      }

      .cls-6 {
        fill: #4f3d9b;
      }

      .cls-7 {
        fill: #e0e0e0;
      }

      .cls-8 {
        fill: #b78876;
      }

      .cls-9 {
        fill: #a36957;
      }

      .cls-10 {
        fill: #ebebeb;
      }

      .cls-11 {
        opacity: .2;
      }

      .cls-12 {
        fill: #4f46e5;
      }

      .cls-13 {
        fill: #7056c1;
      }

      .cls-14 {
        fill: #263238;
      }
    </style>
  </defs>
  <g id="Capa_1-2" data-name="Capa 1">
    <g>
      <g id="freepik--background-complete--inject-96">
        <path class="cls-10" d="m157.6,9.57l-95.2,123.7,256-63.6L175.9,4.97c-6.4-2.9-14-1-18.3,4.6Z"/>
        <path class="cls-7" d="m61.1,134.17L157.2,9.27c4.4-5.8,12.3-7.7,18.9-4.7l144,65.2L61.1,134.17ZM169.6,4.17c-4.5,0-8.8,2.1-11.5,5.7h0l-94.3,122.5,253.1-62.9L175.7,5.47c-2-.9-4-1.3-6.1-1.3h0Z"/>
        <path class="cls-1" d="m62.4,133.27l256.9-63.9h0l34.6,139.2c1.4,5.7-2.1,11.6-7.8,13l-236.1,58.7c-5.7,1.4-11.6-2.1-13-7.8l-34.6-139.2h0Z"/>
        <path class="cls-2" d="m303.5,76.97l-89,90.9-134.5-30.2-15.4-71.3c-1.8-7.7,2.9-15.3,10.6-17.2L269.8.77c7.7-1.9,15.5,2.8,17.4,10.5h0l16.3,65.7Z"/>
        <path class="cls-7" d="m202.3,160.77l-105.7,110.5h0c1.6,6.3,8,10.2,14.3,8.6h0l234.3-58.3c6.3-1.6,10.2-8,8.6-14.3l-.2-.9-138.2-48.8c-4.6-1.5-9.7-.3-13.1,3.2Z"/>
        <rect class="cls-7" x="92.19" y="68.98" width="78.4" height="8" transform="translate(-13.73 33.88) rotate(-13.97)"/>
        <rect class="cls-7" x="95.81" y="77.17" width="174.1" height="9.1" transform="translate(-14.32 46.56) rotate(-13.97)"/>
        <rect class="cls-7" x="101.2" y="98.56" width="174.1" height="9.1" transform="translate(-19.32 48.49) rotate(-13.97)"/>
        <polygon class="cls-7" points="275.1 106.17 269.8 111.47 128 148.47 109.5 144.17 108.8 142.17 277.2 100.27 277.9 103.17 275.1 106.17"/>
        <polygon class="cls-7" points="238.8 143.07 175 158.97 155.4 154.47 250.9 130.77 238.8 143.07"/>
        <path class="cls-3" d="m198.4,164.77s-.1.1-.2.3l-.8.8-2.9,3.1-10.9,11.5c-9.2,9.7-22,23.1-36.2,37.8s-27.1,27.9-36.6,37.4c-4.7,4.7-8.6,8.5-11.3,11.2l-3.1,3-.8.8c-.1.1-.2.2-.3.2.1-.1.2-.2.2-.3l.8-.8,3-3.1,11.2-11.3c9.4-9.5,22.3-22.8,36.5-37.5s27-28,36.2-37.7l11-11.4,3-3.1.8-.8c.3,0,.4-.1.4-.1Z"/>
        <path class="cls-3" d="m353.6,206.37c0,.1-29.5-10.1-65.8-22.9s-65.7-23.2-65.6-23.4,29.5,10.1,65.8,22.8,65.6,23.4,65.6,23.5Z"/>
        <path class="cls-3" d="m307.8,72.67c-.1.1-.1.2-.2.2l-.6.7-2.4,2.6-8.8,9.6c-7.5,8.1-17.9,19.1-29.6,31.2s-22.5,22.8-30.3,30.6l-9.3,9.1-2.6,2.4-.7.6c-.2.1-.2.2-.2.2.1-.1.1-.2.2-.2l.6-.7,2.5-2.5,9.2-9.2c7.8-7.8,18.4-18.6,30.1-30.7s22.1-23,29.7-31l9-9.5,2.5-2.6.6-.7c.1,0,.2-.1.3-.1Z"/>
        <path class="cls-3" d="m198.4,164.77c-.1,0-.2,0-.4-.1l-1-.2-4-1c-3.4-.9-8.4-2.1-14.5-3.5-12.3-2.9-29.3-6.7-48.2-10.7s-35.9-7.9-48.1-10.9c-6.1-1.5-11.1-2.8-14.5-3.7l-3.9-1.1-1-.3c-.1,0-.2-.1-.3-.1l.3.1,1,.2,4,1c3.4.9,8.4,2.1,14.5,3.5,12.3,2.9,29.3,6.7,48.2,10.7s35.9,7.9,48.1,10.9c6.1,1.5,11.1,2.8,14.5,3.7l3.9,1.1,1,.3.4.1Z"/>
        <path class="cls-7" d="m303.5,76.97s-.1-.3-.3-1l-.7-2.8c-.6-2.5-1.6-6.2-2.8-10.9l-10.1-40.1c-.5-2.1-1.1-4.3-1.6-6.5-.3-1.1-.5-2.2-.8-3.4-.1-.6-.3-1.1-.5-1.7s-.4-1.1-.6-1.6c-2-4.6-6.3-7.7-11.2-8.3-1.3-.2-2.5-.2-3.8,0s-2.5.6-3.8.9l-7.9,2-16.4,4-72.9,18.2-73,18.1-16.4,4.1-4,1c-1.3.3-2.6.7-3.8,1.2-2.4,1-4.4,2.7-5.9,4.8-.7,1-1.3,2.1-1.8,3.3-.4,1.2-.7,2.4-.8,3.6-.3,2.4.4,4.8.9,7.1,1,4.7,2,9.1,2.9,13.4,3.7,17.1,6.6,30.9,8.6,40.5,1,4.8,1.8,8.5,2.3,11,.2,1.2.4,2.2.6,2.9s.2,1,.2,1c0,0-.1-.3-.2-1s-.4-1.6-.6-2.9c-.6-2.5-1.4-6.2-2.4-11-2.1-9.6-5.1-23.4-8.8-40.4-.9-4.3-1.9-8.7-2.9-13.4-.5-2.3-1.2-4.7-.9-7.3.1-1.3.4-2.5.8-3.7.5-1.2,1.1-2.4,1.8-3.4.8-1.1,1.7-2,2.7-2.9s2.2-1.6,3.4-2.1c1.3-.5,2.5-.9,3.9-1.2l4-1,16.4-4.1,73-18.2L243.1,7.07l16.4-4.1,7.9-1.9c1.3-.3,2.5-.7,3.9-.9,3.9-.6,7.9.4,11,2.8,2,1.5,3.5,3.5,4.5,5.7.3.5.5,1.1.6,1.7.2.6.3,1.1.5,1.7.3,1.1.5,2.3.8,3.4.5,2.2,1.1,4.4,1.6,6.5l9.9,40.2c1.1,4.7,2,8.4,2.7,10.9.3,1.2.5,2.2.7,2.9s-.1,1-.1,1Z"/>
      </g>
      <g id="freepik--Floor--inject-96">
        <path class="cls-14" d="m404,390.57c0,.1-90.4.3-202,.3s-202-.1-202-.3,90.4-.3,202-.3,202,.2,202,.3Z"/>
      </g>
      <polygon class="cls-13" points="191.7 24.27 181.8 31.77 182.3 46.17 173.2 38.97 168.2 43.27 149.2 19.77 191.7 24.27"/>
      <path class="cls-12" d="m178.1,34.77c0,.4,4.2,11.3,4.2,11.3l-9.1-7.2,4.9-4.1Z"/>
      <path class="cls-6" d="m178.1,34.77c0,.4,4.2,11.3,4.2,11.3l-9.1-7.2,4.9-4.1Z"/>
      <polygon class="cls-12" points="149.2 19.77 178.1 34.77 182.3 46.17 181.8 31.77 149.2 19.77"/>
      <polygon class="cls-6" points="149.2 19.77 178.1 34.77 182.3 46.17 181.8 31.77 149.2 19.77"/>
      <path class="cls-14" d="m229.2,213.77c-1.8-.1-3.5-.5-5.1-1.2,1.8,0,3.5.5,5.1,1.2Z"/>
      <path class="cls-14" d="m237.4,215.77c0,.1-.8.1-1.6-.1s-1.5-.5-1.5-.6.8-.1,1.6.1,1.6.5,1.5.6Z"/>
      <path class="cls-14" d="m203.7,44.27c-.9,0-1.8-.1-2.6-.4-.9-.1-1.7-.4-2.5-.8.9-.1,1.8,0,2.6.3.9.1,1.7.4,2.5.9Z"/>
      <path class="cls-14" d="m213.4,48.37c-1.7-.6-3.3-1.3-4.7-2.4.9.1,1.8.4,2.5.9,1.3.7,2.2,1.4,2.2,1.5Z"/>
      <path class="cls-14" d="m221.7,54.77c-.1.1-1-.6-2.1-1.6s-2-1.7-1.9-1.9c.9.3,1.6.8,2.2,1.5,1.2,1,2,1.9,1.8,2Z"/>
      <path class="cls-14" d="m228.1,63.17c-.1.1-.8-.9-1.6-2.1-.6-.7-1-1.5-1.3-2.3.1-.1,1,.8,1.8,2,.6.6,1,1.5,1.1,2.4Z"/>
      <path class="cls-14" d="m231.8,72.97c-.4-.8-.7-1.6-.9-2.5-.3-.8-.5-1.7-.5-2.6.5.7.9,1.6,1.1,2.4.2.9.4,1.8.3,2.7Z"/>
      <path class="cls-14" d="m232.3,83.47c-.2-.9-.2-1.8-.1-2.6-.1-.9,0-1.8.2-2.6.3.8.4,1.7.3,2.6.1.9,0,1.8-.4,2.6Z"/>
      <path class="cls-14" d="m229.6,93.67c.1-.9.4-1.7.7-2.5.2-.9.5-1.7,1-2.4,0,.9-.1,1.8-.5,2.6-.2.8-.6,1.6-1.2,2.3Z"/>
      <path class="cls-14" d="m223.5,102.17c-.1-.1.7-1,1.6-2.1s1.7-2,1.8-1.9c-.3.9-.8,1.6-1.4,2.2-1,1.2-1.9,1.9-2,1.8Z"/>
      <path class="cls-14" d="m214.6,107.87c.7-.6,1.4-1,2.3-1.4.7-.5,1.6-.9,2.4-1.1-.6.7-1.3,1.2-2.2,1.6-.7.5-1.6.8-2.5.9Z"/>
      <path class="cls-14" d="m204.4,110.07c.8-.3,1.7-.5,2.6-.5.9-.2,1.8-.3,2.6-.2-.8.4-1.7.7-2.6.7-.8.3-1.7.2-2.6,0Z"/>
      <path class="cls-14" d="m194.1,108.07c1.7.4,3.4.9,5,1.5-.9.1-1.8,0-2.6-.4-.9-.1-1.7-.5-2.4-1.1Z"/>
      <path class="cls-14" d="m186.8,100.87c.1-.1.6,1,1.4,2.2s1.6,2,1.5,2.1-1.1-.6-1.9-1.8c-.6-.7-1-1.6-1-2.5Z"/>
      <path class="cls-14" d="m191.2,92.67c0,.2-1.1.5-2.2,1.3s-1.8,1.8-1.9,1.7.3-1.3,1.6-2.2c.7-.5,1.6-.8,2.5-.8Z"/>
      <path class="cls-14" d="m200.3,96.47c-.1.1-.8-.9-1.8-1.9s-2.1-1.4-2-1.6c.9.1,1.8.5,2.4,1.2.7.6,1.2,1.4,1.4,2.3Z"/>
      <path class="cls-14" d="m200.6,106.67c.1-.9.2-1.7.5-2.6.1-.9.2-1.7.5-2.6.3.9.3,1.8,0,2.7-.1.9-.4,1.8-1,2.5Z"/>
      <path class="cls-14" d="m193.8,114.47c-.1-.1.8-.9,1.9-1.8s2-1.7,2.1-1.6-.6,1.1-1.7,2-2.3,1.6-2.3,1.4Z"/>
      <path class="cls-14" d="m184.4,119.37c.7-.6,1.4-1.1,2.3-1.4.8-.5,1.6-.7,2.5-.9-1.4,1.1-3.1,1.9-4.8,2.3h0Z"/>
      <path class="cls-14" d="m175,124.17c-.1-.1.9-.8,2.1-1.6.7-.5,1.6-.9,2.5-1,.1.1-.9.8-2.2,1.5-.7.5-1.5.9-2.4,1.1Z"/>
      <path class="cls-14" d="m167,130.97c-.1-.1.6-1.1,1.6-2.1.6-.7,1.3-1.2,2.1-1.6.1.1-.7,1-1.7,2s-1.8,1.8-2,1.7Z"/>
      <path class="cls-14" d="m161,139.67c.2-.9.5-1.7,1.1-2.4.8-1.2,1.6-2.1,1.7-2.1-.3.8-.7,1.6-1.2,2.4-.8,1.1-1.5,2.1-1.6,2.1Z"/>
      <path class="cls-14" d="m157.2,149.47c-.1-.9.1-1.8.5-2.6.2-.9.6-1.7,1.1-2.4-.3,1.7-.9,3.4-1.6,5h0Z"/>
      <path class="cls-14" d="m155.8,159.87c-.4-1.8-.2-3.6.4-5.3.2.9.2,1.8,0,2.6,0,1-.1,1.9-.4,2.7Z"/>
      <path class="cls-14" d="m157.2,170.27c-.4-.8-.7-1.6-.8-2.5-.3-.9-.4-1.8-.2-2.6.4.8.6,1.7.8,2.5.1.8.2,1.7.2,2.6Z"/>
      <path class="cls-14" d="m161.2,179.97c-.1.1-.8-.9-1.5-2.2-.5-.8-.8-1.6-.9-2.5.6.7,1,1.4,1.3,2.3.6.7.9,1.6,1.1,2.4Z"/>
      <path class="cls-14" d="m167.6,188.47c-.1.1-1-.7-2-1.8-.6-.6-1.1-1.4-1.4-2.2.1-.1.9.8,1.9,1.9s1.6,2,1.5,2.1Z"/>
      <path class="cls-14" d="m175.7,195.17c-.9-.2-1.7-.7-2.3-1.3-1.2-.9-2-1.7-1.9-1.8.8.3,1.6.8,2.2,1.4,1.1.8,2.1,1.5,2,1.7Z"/>
      <path class="cls-14" d="m185.2,199.67c-.9,0-1.8-.2-2.6-.6-.9-.2-1.7-.7-2.3-1.3.9.1,1.7.4,2.5.8.8.2,1.6.6,2.4,1.1Z"/>
      <path class="cls-14" d="m190.5,201.07c0,.1-.1.3-.1.2s-.1-.1,0-.3.1-.3.1-.2v.3Z"/>
      <rect class="cls-12" x="172.61" y="170.71" width="7.2" height="11.5" transform="translate(-46.42 288.81) rotate(-71.82)"/>
      <rect class="cls-6" x="172.61" y="170.71" width="7.2" height="11.5" transform="translate(-46.42 288.81) rotate(-71.82)"/>
      <path class="cls-12" d="m182.8,174.87c-2,1-4.2,1.9-6.3,2.6l-.2.1-.1-.2-.2-.2c-1.5-1.8-2.9-3.8-4.1-5.9,1.6,1.7,3.2,3.6,4.5,5.5l.2.2-.3-.1c2.1-.8,4.3-1.5,6.5-2Z"/>
      <path class="cls-13" d="m182.8,174.87c-2,1-4.2,1.9-6.3,2.6l-.2.1-.1-.2-.2-.2c-1.5-1.8-2.9-3.8-4.1-5.9,1.6,1.7,3.2,3.6,4.5,5.5l.2.2-.3-.1c2.1-.8,4.3-1.5,6.5-2Z"/>
      <path class="cls-12" d="m175,175.47c-.8.7-1.6,1.2-2.6,1.6-.9.5-1.8.9-2.8,1.1.8-.7,1.6-1.2,2.6-1.6.9-.6,1.8-1,2.8-1.1Z"/>
      <path class="cls-13" d="m175,175.47c-.8.7-1.6,1.2-2.6,1.6-.9.5-1.8.9-2.8,1.1.8-.7,1.6-1.2,2.6-1.6.9-.6,1.8-1,2.8-1.1Z"/>
      <path class="cls-12" d="m180.8,181.67c-.6-.8-1.1-1.6-1.4-2.5-.7-1.5-1.1-2.8-.9-2.8.6.8,1.1,1.6,1.4,2.5.4.9.7,1.9.9,2.8Z"/>
      <path class="cls-13" d="m180.8,181.67c-.6-.8-1.1-1.6-1.4-2.5-.7-1.5-1.1-2.8-.9-2.8.6.8,1.1,1.6,1.4,2.5.4.9.7,1.9.9,2.8Z"/>
      <rect class="cls-13" x="201.24" y="190.77" width="18.4" height="29.6" transform="translate(-50.52 341.37) rotate(-71.82)"/>
      <path class="cls-12" d="m227.4,201.47c-.4.2-.8.4-1.3.6l-3.5,1.4c-3,1.1-7.1,2.7-11.7,4.4l-.2.1-.1-.2-.5-.6c-3.1-4-5.8-7.7-7.8-10.4l-2.3-3.2c-.3-.4-.6-.8-.8-1.2.4.3.7.7,1,1.1l2.4,3.1c2.1,2.6,4.9,6.3,7.9,10.3l.5.6-.3-.1c4.6-1.7,8.8-3.2,11.8-4.2l3.6-1.2c.4-.3.8-.4,1.3-.5Z"/>
      <path class="cls-6" d="m227.4,201.47c-.4.2-.8.4-1.3.6l-3.5,1.4c-3,1.1-7.1,2.7-11.7,4.4l-.2.1-.1-.2-.5-.6c-3.1-4-5.8-7.7-7.8-10.4l-2.3-3.2c-.3-.4-.6-.8-.8-1.2.4.3.7.7,1,1.1l2.4,3.1c2.1,2.6,4.9,6.3,7.9,10.3l.5.6-.3-.1c4.6-1.7,8.8-3.2,11.8-4.2l3.6-1.2c.4-.3.8-.4,1.3-.5Z"/>
      <path class="cls-12" d="m207.4,202.97c-2.2,1.4-4.5,2.6-6.8,3.6-2.3,1.2-4.6,2.3-7.1,3.1,2.2-1.4,4.5-2.6,6.8-3.6,2.3-1.2,4.7-2.2,7.1-3.1Z"/>
      <path class="cls-6" d="m207.4,202.97c-2.2,1.4-4.5,2.6-6.8,3.6-2.3,1.2-4.6,2.3-7.1,3.1,2.2-1.4,4.5-2.6,6.8-3.6,2.3-1.2,4.7-2.2,7.1-3.1Z"/>
      <path class="cls-12" d="m222.1,219.17c-1.2-2.1-2.3-4.4-3.2-6.7-1.1-2.2-2-4.5-2.7-6.9,1.2,2.1,2.3,4.4,3.2,6.7,1.1,2.2,2,4.5,2.7,6.9Z"/>
      <path class="cls-6" d="m222.1,219.17c-1.2-2.1-2.3-4.4-3.2-6.7-1.1-2.2-2-4.5-2.7-6.9,1.2,2.1,2.3,4.4,3.2,6.7,1.1,2.2,2,4.5,2.7,6.9Z"/>
      <path class="cls-14" d="m200.8,196.57c-2,1.4-4.7,1-6.1-.9-1.4-2-1-4.7.9-6.1,2-1.4,4.7-1,6.1.9,1.5,1.9,1.1,4.7-.9,6.1h0Z"/>
      <path class="cls-2" d="m201,192.17c-.9.7-1.9,1.3-2.9,1.8l-.7.4-.1.1-.1-.1c-.5-.8-.9-1.5-1.2-2.4.6.7,1,1.4,1.4,2.2l-.2-.1.7-.4c1-.5,2-1,3.1-1.5Z"/>
      <rect class="cls-12" x="195.61" y="172.36" width="9.6" height="15.5" transform="translate(-33.24 314.32) rotate(-71.82)"/>
      <rect class="cls-6" x="195.61" y="172.36" width="9.6" height="15.5" transform="translate(-33.24 314.32) rotate(-71.82)"/>
      <path class="cls-12" d="m209.3,177.87l-.6.3-1.8.7c-1.6.6-3.7,1.4-6.1,2.3h-.1l-.1-.1-.2-.3c-1.6-2.1-3-4.1-4.1-5.5l-1.2-1.6c-.2-.2-.3-.4-.4-.6.2.2.4.4.5.6l1.3,1.6c1.1,1.4,2.5,3.3,4.1,5.4l.2.3h-.2c2.4-.9,4.6-1.7,6.2-2.2l1.9-.6c.1-.1.4-.2.6-.3Z"/>
      <path class="cls-13" d="m209.3,177.87l-.6.3-1.8.7c-1.6.6-3.7,1.4-6.1,2.3h-.1l-.1-.1-.2-.3c-1.6-2.1-3-4.1-4.1-5.5l-1.2-1.6c-.2-.2-.3-.4-.4-.6.2.2.4.4.5.6l1.3,1.6c1.1,1.4,2.5,3.3,4.1,5.4l.2.3h-.2c2.4-.9,4.6-1.7,6.2-2.2l1.9-.6c.1-.1.4-.2.6-.3Z"/>
      <path class="cls-12" d="m198.8,178.67c-1.1.7-2.3,1.3-3.6,1.9-1.2.6-2.4,1.2-3.7,1.6,1.1-.7,2.3-1.4,3.6-1.9,1.2-.6,2.5-1.1,3.7-1.6Z"/>
      <path class="cls-13" d="m198.8,178.67c-1.1.7-2.3,1.3-3.6,1.9-1.2.6-2.4,1.2-3.7,1.6,1.1-.7,2.3-1.4,3.6-1.9,1.2-.6,2.5-1.1,3.7-1.6Z"/>
      <path class="cls-12" d="m206.6,187.17c-.6-1.1-1.2-2.3-1.7-3.5-.6-1.2-1-2.4-1.4-3.6,1.2,2.3,2.2,4.6,3.1,7.1h0Z"/>
      <path class="cls-13" d="m206.6,187.17c-.6-1.1-1.2-2.3-1.7-3.5-.6-1.2-1-2.4-1.4-3.6,1.2,2.3,2.2,4.6,3.1,7.1h0Z"/>
      <path class="cls-14" d="m91,63.17c-2.8,11.2-14.2,17.9-25.4,15.1-11.2-2.8-17.9-14.2-15.1-25.4,2.8-11.2,14.2-17.9,25.4-15.1s17.9,14.2,15.1,25.4Z"/>
      <path class="cls-2" d="m78.5,46.67c.4.2-2,7.1-5.3,15.6-.5,1.2-1,2.4-1.4,3.6l-.2.6-.6-.2c-6.8-2.6-11.7-4.8-11.6-5.1s5.3,1.3,12.1,3.8l-.9.4c.4-1.2.9-2.3,1.4-3.6,3.1-8.5,6.1-15.2,6.5-15.1Z"/>
      <g id="freepik--Plant--inject-96">
        <path class="cls-12" d="m347.6,358.67c3.7-1.8,7.9-2.3,12-1.5,2.2.4,4.5,1,5.9,2.6s1.8,4.5.1,5.9c-1.1.7-2.4,1.1-3.7,1-3.2,0-6.7-.6-9.2,1.3-1.5,1.1-2.4,2.9-4.1,3.4-1.8.4-3.6-.4-4.5-2-.8-1.6-1-3.4-.5-5.2.3-2.3,1.9-4.4,4-5.5Z"/>
        <g class="cls-11">
          <path class="cls-2" d="m347.6,358.67c3.7-1.8,7.9-2.3,12-1.5,2.2.4,4.5,1,5.9,2.6s1.8,4.5.1,5.9c-1.1.7-2.4,1.1-3.7,1-3.2,0-6.7-.6-9.2,1.3-1.5,1.1-2.4,2.9-4.1,3.4-1.8.4-3.6-.4-4.5-2-.8-1.6-1-3.4-.5-5.2.3-2.3,1.9-4.4,4-5.5Z"/>
        </g>
        <path class="cls-6" d="m339.3,342.47c2.2,3.2,6.6,2.1,8.6.2s2.9-4.8,3.6-7.5c1.8-6.1,3.5-12.6,2.2-18.9-.3-1.9-1.2-3.7-2.4-5.1-1.3-1.5-3.3-2.1-5.2-1.7-2.2.6-3.5,2.7-4.5,4.8-2.9,6-4.4,12.6-4.4,19.3,0,3.1.3,6.4,2.1,8.9"/>
        <path class="cls-12" d="m333.1,347.07c2.4-2.9,2.9-7.1,1.8-10.7-1.2-3.6-3.4-6.8-6.3-9.2-3.3-2.9-7.2-5.2-11.3-6.6-1.6-.7-3.4-1-5.1-.9-1.8.1-3.4,1.1-4.3,2.6-1.2,2.3,0,5,1.2,7.3,2.2,4,4.7,7.8,7.4,11.3,2.2,2.9,4.8,5.7,8.2,7s6.9,1.1,8.7-1.2"/>
        <path class="cls-6" d="m333.1,347.07c2.4-2.9,2.9-7.1,1.8-10.7-1.2-3.6-3.4-6.8-6.3-9.2-3.3-2.9-7.2-5.2-11.3-6.6-1.6-.7-3.4-1-5.1-.9-1.8.1-3.4,1.1-4.3,2.6-1.2,2.3,0,5,1.2,7.3,2.2,4,4.7,7.8,7.4,11.3,2.2,2.9,4.8,5.7,8.2,7s6.9,1.1,8.7-1.2"/>
        <path class="cls-14" d="m339.1,390.67c.1-.5.2-1,.2-1.5.1-1.1.2-2.4.4-4,.2-1.9.5-3.9.9-5.8.5-2.3,1.2-4.6,2.1-6.9.9-2.2,2-4.3,3.5-6.2,1.2-1.5,2.7-2.8,4.4-3.7,1.2-.6,2.4-1,3.7-1.2.5,0,1-.1,1.4-.2-.5-.1-1-.1-1.5,0-1.3.1-2.7.4-3.9,1-1.8.9-3.4,2.1-4.7,3.7-1.5,1.9-2.7,4-3.6,6.3s-1.6,4.6-2.1,7c-.4,1.9-.6,3.9-.8,5.9-.1,1.7-.2,3-.2,4,.2.6.2,1.1.2,1.6Z"/>
        <path class="cls-14" d="m339.4,387.57v-2.6c0-1.7,0-4.1.1-7.1.1-6,.7-14.2,1.7-23.3s2.3-17.2,3.5-23c.3-1.5.6-2.8.8-3.9s.5-2.2.7-3,.3-1.4.5-1.9c.1-.2.1-.4.1-.7-.1.2-.2.4-.2.6l-.6,1.9c-.2.8-.5,1.8-.8,2.9s-.6,2.5-.9,3.9c-1.6,7.6-2.9,15.3-3.7,23-1,9.1-1.4,17.3-1.5,23.3,0,3,0,5.4.1,7.1,0,.8.1,1.4.1,1.9,0,.4.1.7.1.9Z"/>
        <path class="cls-14" d="m339.4,371.67c.1-.7.1-1.3,0-2-.1-1.8-.3-3.6-.6-5.4-1-6-2.7-11.8-5.1-17.3-2.3-5.6-5.6-10.8-9.7-15.2-.7-.8-1.5-1.5-2.3-2.1-.4-.3-.7-.6-1-.8l-.9-.6c-.5-.4-1.1-.8-1.7-1.1,1.9,1.5,3.8,3.2,5.5,5,4,4.5,7.2,9.6,9.5,15.1,1.3,3,2.4,6.1,3.3,9.3.9,2.9,1.5,5.6,1.9,7.9s.6,4.1.8,5.4c.1.5.2,1.1.3,1.8Z"/>
      </g>
      <g id="freepik--Device--inject-96">
        <polygon class="cls-5" points="187.4 239.77 229.2 239.77 245.8 193.47 243.5 193.47 227 237.57 187.4 237.77 187.4 239.77"/>
      </g>
      <g id="freepik--Desk--inject-96">
        <polygon class="cls-14" points="168.9 245.67 170.4 390.77 174.7 390.77 172.9 244.57 168.9 245.67"/>
        <path class="cls-14" d="m258.5,244.27c-.6,2.8,3.8,146.8,3.8,146.8h4l-3.2-146.8h-4.6Z"/>
        <polygon class="cls-14" points="307.4 239.77 129.4 239.77 129.4 247.17 144.1 247.17 134.5 390.27 138.7 390.57 148.3 247.17 292.4 247.17 299.4 390.57 303.6 390.57 296.6 247.17 307.4 247.17 307.4 239.77"/>
      </g>
      <path class="cls-6" d="m207,385.27v-11l-20.6-.2-.2,16.1,1.3.1c5.7.4,28.9,1.5,32.7.4,4.2-1.2-13.2-5.4-13.2-5.4Z"/>
      <path class="cls-4" d="m193.6,390.07c-.3-1.7-1.2-3.3-2.6-4.4-1.4-1.1-3.1-1.6-4.8-1.5l-.1,5.8,7.5.1Z"/>
      <path class="cls-4" d="m215.5,387.57s6.1,1.8,5.3,2.8-24.3.8-34.7-.3v-.5l27.4.5c.1.2.8-2.4,2-2.5Z"/>
      <path class="cls-14" d="m185.9,389.67h.4l1,.1,3.7.2c3.2.1,7.5.3,12.4.4,4.8.1,9.2,0,12.4-.1l3.8-.1h1.4-17.6c-4.9,0-9.2-.2-12.4-.3l-3.8-.1h-1l-.3-.1Z"/>
      <path class="cls-14" d="m213.6,390.57c.2-.6.4-1.2.7-1.8.4-.5.8-1,1.3-1.4-1.2.5-2,1.8-2,3.2h0Z"/>
      <path class="cls-14" d="m207.6,387.47c.1,0,.4-.3.7-.8.3-.5.5-.9.5-.9,0,0-.4.3-.7.8-.3.2-.4.5-.5.9Z"/>
      <path class="cls-14" d="m205.9,386.57c.1,0,.4-.2.7-.5s.6-.6.6-.7-.4.2-.7.5-.6.6-.6.7Z"/>
      <path class="cls-14" d="m204.9,384.57c.3.1.7.2,1.1.1.4,0,.7,0,1.1-.1-.3-.1-.7-.2-1.1-.1-.4,0-.8,0-1.1.1Z"/>
      <path class="cls-14" d="m204.5,383.17c.7.4,1.6.5,2.4.2-.7,0-1.6-.1-2.4-.2Z"/>
      <path class="cls-14" d="m208.3,385.67c.4.1.9.1,1.3,0,.5-.1,1-.1,1.4-.3.3-.1.6-.2.8-.3.2-.1.3-.2.3-.4s0-.4-.2-.5c-1-.5-2.3-.2-3,.7-.2.3-.4.6-.5.9v.4c.1-.4.3-.8.6-1.1s.7-.6,1.1-.7c.5-.2,1.1-.1,1.6.1.2.2.1.4-.1.5s-.5.2-.8.3c-.4.1-.9.3-1.4.3-.6,0-1.1,0-1.1.1Z"/>
      <path class="cls-14" d="m208.6,385.67c.2-.3.2-.6.2-.9,0-.4-.2-.7-.4-1-.2-.4-.6-.7-1.1-.7-.3.1-.5.3-.4.6,0,.2.1.4.2.6.2.3.4.6.6.8.2.2.5.4.8.5,0,0-.3-.2-.6-.7-.2-.2-.4-.5-.5-.8-.2-.3-.3-.8,0-.8s.7.3.9.6c.2.3.3.6.4.9-.1.3,0,.6-.1.9Z"/>
      <path class="cls-14" d="m186.4,384.07s.6,0,1.5.1c1.2.2,2.4.6,3.3,1.4.9.8,1.6,1.8,2,3,.3.9.3,1.5.4,1.5s0-.1,0-.4c0-.4-.1-.8-.2-1.1-.7-2.5-2.9-4.3-5.5-4.5h-1.1c-.2-.1-.3,0-.4,0Z"/>
      <path class="cls-14" d="m188.6,375.57c-.2,2.8-.3,5.6-.2,8.5.2-1.4.2-2.8.2-4.2.1-1.5.1-2.9,0-4.3Z"/>
      <path class="cls-14" d="m196.2,388.07c1,.2,2,.4,3,.3,1,.1,2,0,3-.2,0-.1-1.4,0-3,0s-3-.1-3-.1Z"/>
      <path class="cls-14" d="m192.2,388.07s.1.3.2.6.2.6.3.6.1-.3-.1-.7-.4-.5-.4-.5Z"/>
      <path class="cls-14" d="m190.7,386.17s.1.3.3.5.4.4.5.3-.1-.3-.3-.5-.4-.4-.5-.3Z"/>
      <path class="cls-14" d="m188.5,385.27c0,.1.3.1.6.2s.5.3.6.2-.1-.3-.5-.5-.7,0-.7.1Z"/>
      <path class="cls-14" d="m187,384.87c0,.1.1.2.3.2s.3.1.4,0-.1-.2-.3-.2-.4-.1-.4,0Z"/>
      <path class="cls-6" d="m247.5,374.17l-4.5-10.1-18.9,8.3,6.4,14.8,1.2-.4c5.3-2,27-10.5,30-13.1,3.4-2.9-14.2.5-14.2.5Z"/>
      <path class="cls-4" d="m237.4,384.07c-1-1.5-2.5-2.6-4.2-3s-3.5-.2-5,.6l2.3,5.3,6.9-2.9Z"/>
      <path class="cls-4" d="m256.2,372.77s6.3-.9,6,.4-21.8,10.7-31.7,14l-.1-.4,25.2-10.8s-.4-2.6.6-3.2Z"/>
      <path class="cls-14" d="m230.1,386.87l.3-.1,1-.4,3.5-1.4c2.9-1.2,7-2.8,11.4-4.8s8.4-3.8,11.2-5.1l3.4-1.6.9-.5c.1,0,.2-.1.3-.2l-.3.1-.9.4-3.4,1.6c-2.9,1.3-6.9,3.1-11.3,5.1s-8.5,3.6-11.4,4.8l-3.5,1.4-.9.4-.3.3Z"/>
      <path class="cls-14" d="m255.8,376.27c-.1-.6-.1-1.3-.1-1.9.1-.6.3-1.2.6-1.8-.5.5-.8,1.1-.8,1.8-.2.6-.1,1.3.3,1.9Z"/>
      <path class="cls-14" d="m249,375.87c.1,0,.2-.4.3-1s.1-1,0-1-.2.4-.3,1c-.1.3-.1.7,0,1Z"/>
      <path class="cls-14" d="m247.1,375.77c.1,0,.3-.3.5-.7s.3-.8.2-.8-.3.3-.5.7-.3.7-.2.8Z"/>
      <path class="cls-14" d="m245.3,374.37c.4,0,.7-.1,1-.3.5-.2,1-.5.9-.5s-.5.1-1,.3-.9.4-.9.5Z"/>
      <path class="cls-14" d="m244.5,373.27c.4.1.9,0,1.2-.2.4-.1.8-.3,1.1-.6-.4.1-.8.2-1.1.4-.5.1-.9.2-1.2.4Z"/>
      <path class="cls-14" d="m248.9,373.97c.4-.1.8-.3,1.2-.5.4-.2.8-.5,1.2-.9l.6-.6c.1-.1.2-.3.1-.5,0-.2-.2-.4-.4-.4-1.3-.1-2.5,1-2.5,2.3v.5c0,.1,0,.2.1.4,0-.4,0-.9.1-1.3s.4-.8.7-1.1c.4-.4.9-.6,1.5-.5.3,0,.3.3.1.5-.2.2-.3.4-.5.6-.3.3-.7.6-1.1.9-.7.3-1.1.5-1.1.6Z"/>
      <path class="cls-14" d="m249.2,373.87c0-.3-.1-.6-.2-.9-.2-.3-.4-.6-.7-.8-.4-.3-.9-.3-1.3-.2-.2.2-.3.5-.1.7.1.2.3.3.4.5.3.2.6.4.9.5s.6.2.9.2c0,0-.3-.1-.8-.4-.3-.1-.6-.3-.8-.5-.3-.2-.6-.6-.3-.8.3-.1.7,0,1,.2s.5.4.7.6c.1.3.2.6.3.9Z"/>
      <path class="cls-14" d="m228.2,381.57s.5-.3,1.4-.6c2.4-.7,5-.1,6.7,1.8.6.7.9,1.2,1,1.2,0-.1-.1-.3-.2-.4-.2-.3-.4-.6-.6-.9-.8-1-1.9-1.7-3.1-2s-2.5-.3-3.7.1c-.3.1-.7.3-1,.5-.4.2-.5.3-.5.3Z"/>
      <path class="cls-14" d="m226.8,372.87c.4,1.4.9,2.7,1.5,4,.5,1.3,1.1,2.6,1.8,3.9-.4-1.3-.9-2.7-1.5-4-.6-1.4-1.2-2.7-1.8-3.9Z"/>
      <path class="cls-14" d="m238.9,381.17c1-.2,2-.5,2.9-.9s1.8-.8,2.7-1.4c0-.1-1.2.5-2.8,1.2s-2.8,1-2.8,1.1Z"/>
      <path class="cls-14" d="m235.2,382.77c0,.1.2.2.5.5s.4.5.5.4,0-.3-.3-.6-.7-.4-.7-.3Z"/>
      <path class="cls-14" d="m233.1,381.67c0,.1.2.2.5.3s.5.1.6.1-.2-.2-.5-.3-.6-.2-.6-.1Z"/>
      <path class="cls-14" d="m230.7,381.77c0,.1.3,0,.6-.1s.6,0,.6,0c0,0-.2-.3-.6-.2s-.6.2-.6.3Z"/>
      <path class="cls-14" d="m229.1,381.97c0,.1.2.1.3.1s.3-.1.3-.1c0,0-.2-.1-.3-.1s-.3.1-.3.1Z"/>
      <path class="cls-12" d="m60.5,300.67l-14.9-111.2c-.3-2.6,1.5-4.9,4-5.3.3,0,.6-.1,1,0l35.9,3c3.3.3,5.9,2.9,6.2,6.2l8.7,105.3-40.9,2Z"/>
      <path class="cls-6" d="m60.5,300.67l-14.9-111.2c-.3-2.6,1.5-4.9,4-5.3.3,0,.6-.1,1,0l35.9,3c3.3.3,5.9,2.9,6.2,6.2l8.7,105.3-40.9,2Z"/>
      <path class="cls-14" d="m95.1,137.27c-.3-4.2-1.4-8.4-2-12.6s-.7-8.6.9-12.5c2.1-4.4,5.8-7.8,10.3-9.5,4.5-1.6,9.4-2.2,14.2-1.6.9,0,1.7.2,2.5.6.8.4,1.3,1.1,1.4,2,0,.9-.6,1.6-1.5,1.6h-.1c1.8.2,3.6.6,5.4,1.1.7.2,1.3.6,1.7,1.2.3.8.3,1.7-.2,2.4s-1.1,1.2-1.8,1.7c.9-.2,1.8.4,1.9,1.3h0c.1.9-.1,1.8-.7,2.5-.5.7-1.2,1.3-1.7,2-2.2,2.9-1.7,6.9-1.2,10.4"/>
      <path class="cls-8" d="m95.5,162.17l20.2-.4c.3-2.3.7-11.4.7-11.4,0,0,8.4-.8,9.1-9.1s.4-27.7.4-27.7h0c-9.4-4.8-20.7-4-29.4,1.9l-1.3.9.3,45.8Z"/>
      <path class="cls-14" d="m123,127.97c-.5-.5-.5-1.3,0-1.7.5-.5,1.3-.5,1.7,0,.5.5.5,1.2,0,1.7-.4.5-1.2.5-1.7,0q0,.1,0,0Z"/>
      <path class="cls-14" d="m125.1,125.97c-.1.1-.9-.5-2.1-.6s-2,.5-2.1.3.1-.3.5-.6c1.1-.7,2.4-.6,3.4.2.3.4.4.7.3.7Z"/>
      <path class="cls-14" d="m111.8,126.17c.6.4.7,1.1.3,1.7-.4.6-1.1.7-1.7.3s-.7-1.1-.3-1.7h0c.4-.5,1.1-.7,1.7-.3h0Z"/>
      <path class="cls-14" d="m112.6,126.27c-.1.1-.9-.6-2.1-.6s-2,.5-2.1.3.1-.3.5-.6c1.1-.7,2.4-.6,3.4.2.2.3.3.6.3.7Z"/>
      <path class="cls-14" d="m116.6,136.07c.6-.2,1.2-.3,1.9-.3.3,0,.6-.1.6-.2,0-.3,0-.6-.2-.9-.2-.8-.5-1.6-.8-2.4-1.1-3.4-1.8-6.2-1.6-6.3s1.2,2.7,2.2,6.1c.2.8.5,1.6.7,2.4.2.4.2.8.1,1.3-.1.2-.3.4-.6.4h-.5c-.5.1-1.2,0-1.8-.1Z"/>
      <path class="cls-2" d="m112.8,137.07c-1.1-.8,3.2,2,5.6,2-.9,1.2-2.5,1.6-3.8,1-2.6-1.1-1.8-3-1.8-3Z"/>
      <path class="cls-9" d="m116.4,150.17c-3.9-.2-7.6-1.5-10.7-3.8,0,0,2.2,6.2,10.6,5.9l.1-2.1Z"/>
      <path class="cls-14" d="m94.8,122.57l.4,10.9s3.8-1.2,4.1-1.3-.1-13.3-.1-13.3c0,0-.5-5,2.7-6.1,3.4-1.2,4.9,1.2,9.7,2,15.9,2.7,14.8-2.2,14.8-2.2,0,0,2-2.1-2.1-4.5s-14.3-3.2-19.9-1.2c-11,3.8-11.7,7.6-11.7,10.9.1,4.6,2.1,4.8,2.1,4.8Z"/>
      <path class="cls-8" d="m96.7,123.67c-.2-.1-6.2-.9-5.6,6.3s7.6,4.2,7.6,4-2-10.3-2-10.3Z"/>
      <path class="cls-9" d="m96.2,131.57s-.1.1-.3.2c-.3.1-.6.2-.9.1-1-.5-1.6-1.5-1.6-2.6-.1-.6,0-1.2.2-1.8.1-.5.4-.8.9-1,.3-.1.6,0,.8.3.1.2.1.3.1.4s.1-.1.1-.4c0-.2-.2-.3-.3-.4-.2-.1-.5-.2-.7-.1-.6.2-1,.6-1.2,1.2-.3.6-.3,1.3-.3,2,.2,1.4,1,2.7,2,2.9.4.1.8,0,1.1-.3.1-.3.1-.4.1-.5Z"/>
      <path class="cls-8" d="m176.1,219.57s10-.5,12,.4c3.5,1.5,13.8,17.7,13.2,17.7h-4.8l-16-6.1-3.8,1-.6-13Z"/>
      <path class="cls-14" d="m219.1,265.97s29.9,103.6,30,103.1-26.8,12.9-26.8,12.9l-18.1-74.9,14.9-41.1Z"/>
      <polygon class="cls-5" points="221.7 382.57 250 368.77 248.8 364.97 220.2 378.87 221.7 382.57"/>
      <path class="cls-5" d="m217.9,344.47c-.1,0-.5-.6-.7-1.4s-.3-1.6-.2-1.6.5.6.7,1.4.4,1.6.2,1.6Z"/>
      <path class="cls-5" d="m219.8,350.57c-.1,0-.5-.6-.7-1.4s-.4-1.5-.2-1.6.5.6.7,1.4.3,1.5.2,1.6Z"/>
      <path class="cls-5" d="m221.7,356.57c-.1,0-.5-.6-.8-1.4s-.4-1.5-.2-1.6.5.6.8,1.4.4,1.6.2,1.6Z"/>
      <path class="cls-5" d="m223.7,362.57c-.1,0-.5-.6-.8-1.4s-.4-1.5-.2-1.6.5.6.8,1.4.4,1.6.2,1.6Z"/>
      <path class="cls-5" d="m225.8,368.57c-.1,0-.5-.6-.8-1.4s-.4-1.5-.3-1.6.5.6.8,1.4.5,1.5.3,1.6Z"/>
      <path class="cls-5" d="m228,374.47c-.1,0-.5-.6-.8-1.4s-.4-1.5-.3-1.6.5.6.8,1.4.5,1.6.3,1.6Z"/>
      <path class="cls-5" d="m226.4,376.97c-.2-.3-.4-.7-.6-1.1-.4-.7-.8-1.8-1.4-3.1-1.1-2.6-2.5-6.3-3.9-10.4s-2.5-7.9-3.4-10.6c-.4-1.3-.7-2.4-1-3.2-.1-.4-.2-.8-.3-1.2.2.4.4.7.5,1.1.3.8.7,1.8,1.1,3.2l3.5,10.5c1.4,4.1,2.7,7.8,3.7,10.5l1.2,3.1c.4.4.5.8.6,1.2Z"/>
      <path class="cls-14" d="m79.5,258.77c.2-5.5-2.9,30.1,24.5,31.1,27.4,1,83.3.5,83.3.5l-6.6,90.3h32.8l6.9-96.1s3.5-27.8-15.6-31.4c-11.9-2.2-86.1-2.9-86.1-2.9l-39.2,8.5Z"/>
      <polygon class="cls-5" points="180 380.87 214.6 380.87 214.6 375.47 180 375.57 180 380.87"/>
      <path class="cls-5" d="m125.9,285.57h.4l1-.1,4-.2,14.9-.6,50.1-1.7h.3v.3c-.4,3.7-.8,7.6-1.1,11.5-.4,5.6-.9,11.2-1.3,16.5s-1,10.4-1.5,15.3c-1,9.7-1.9,18.5-2.7,25.9s-1.4,13.3-1.9,17.5c-.2,2-.4,3.6-.5,4.8-.1.5-.1.9-.1,1.2,0,.1,0,.3-.1.4v-.4c0-.3.1-.7.1-1.2.1-1.1.2-2.7.4-4.8.4-4.1,1-10.1,1.7-17.5s1.6-16.2,2.6-25.9c.5-4.9,1-10,1.5-15.3s.8-10.8,1.3-16.5c.3-4,.7-7.9,1.2-11.5l.3.3-50.1,1.5-14.9.4-4,.1h-1c-.3.1-.5,0-.6,0Z"/>
      <path class="cls-5" d="m129.1,281.67c0,.1-.7.3-1.6.3s-1.6-.1-1.6-.2.7-.3,1.6-.3,1.6,0,1.6.2Z"/>
      <path class="cls-5" d="m135.4,281.47c0,.1-.7.3-1.6.3s-1.6-.1-1.6-.2.7-.3,1.6-.3,1.6.1,1.6.2Z"/>
      <path class="cls-5" d="m141.7,281.37c0,.2-.7.3-1.6.3s-1.6-.1-1.6-.2.7-.3,1.6-.3,1.6,0,1.6.2Z"/>
      <path class="cls-5" d="m148.1,281.17c0,.2-.7.3-1.6.3s-1.6-.1-1.6-.2.7-.3,1.6-.3,1.6.1,1.6.2Z"/>
      <path class="cls-5" d="m154.4,281.07c0,.1-.7.3-1.6.3s-1.6-.1-1.6-.2.7-.3,1.6-.3,1.6,0,1.6.2Z"/>
      <path class="cls-5" d="m160.7,280.97c0,.1-.7.3-1.6.3s-1.6-.1-1.6-.2.7-.3,1.6-.3,1.6,0,1.6.2Z"/>
      <path class="cls-5" d="m167.1,280.77c0,.1-.7.3-1.6.3s-1.6-.1-1.6-.2.7-.3,1.6-.3,1.5,0,1.6.2Z"/>
      <path class="cls-5" d="m173.4,280.57c0,.1-.7.3-1.6.3s-1.6-.1-1.6-.2.7-.3,1.6-.3,1.6.1,1.6.2Z"/>
      <path class="cls-5" d="m179.7,280.47c0,.1-.7.3-1.6.3s-1.6-.1-1.6-.2.7-.3,1.6-.3,1.6.1,1.6.2Z"/>
      <path class="cls-5" d="m186,280.37c0,.1-.7.3-1.6.3s-1.6-.1-1.6-.2.7-.3,1.6-.3,1.6,0,1.6.2Z"/>
      <path class="cls-5" d="m192.4,280.17c0,.1-.7.3-1.6.3s-1.6-.1-1.6-.2.7-.3,1.6-.3,1.6.1,1.6.2Z"/>
      <path class="cls-5" d="m198.7,280.07c0,.2-.7.3-1.6.3s-1.6-.1-1.6-.2.7-.3,1.6-.3,1.6,0,1.6.2Z"/>
      <path class="cls-5" d="m198.7,285.77c-.2,0-.2-.7-.1-1.6s.3-1.6.4-1.5.2.7.1,1.6-.3,1.5-.4,1.5Z"/>
      <path class="cls-5" d="m198.1,292.07c-.1,0-.2-.7-.1-1.6s.3-1.6.4-1.5.2.7.1,1.6-.3,1.5-.4,1.5Z"/>
      <path class="cls-5" d="m197.4,298.37c-.1,0-.2-.7-.1-1.6s.3-1.6.4-1.5.2.7.1,1.6-.2,1.5-.4,1.5Z"/>
      <path class="cls-5" d="m196.8,304.67c-.1,0-.2-.7-.1-1.6s.3-1.6.4-1.5.2.7.1,1.6-.2,1.5-.4,1.5Z"/>
      <path class="cls-5" d="m196.2,310.97c-.1,0-.2-.7-.1-1.6s.3-1.6.4-1.5.2.7.1,1.6-.2,1.5-.4,1.5Z"/>
      <path class="cls-5" d="m195.6,317.27c-.1,0-.2-.7-.1-1.6s.3-1.6.4-1.5.2.7.1,1.6-.2,1.5-.4,1.5Z"/>
      <path class="cls-5" d="m195,323.57c-.2,0-.2-.7-.1-1.6s.3-1.6.4-1.5.2.7.1,1.6-.3,1.5-.4,1.5Z"/>
      <path class="cls-5" d="m194.4,329.87c-.1,0-.2-.7-.1-1.6s.3-1.6.4-1.5.2.7.1,1.6-.3,1.5-.4,1.5Z"/>
      <path class="cls-5" d="m193.7,336.17c-.1,0-.2-.7-.1-1.6s.3-1.6.4-1.5.2.7.1,1.6-.2,1.5-.4,1.5Z"/>
      <path class="cls-5" d="m193.1,342.47c-.1,0-.2-.7-.1-1.6s.3-1.6.4-1.5.2.7.1,1.6-.2,1.5-.4,1.5Z"/>
      <path class="cls-5" d="m192.5,348.77c-.1,0-.2-.7-.1-1.6s.3-1.6.4-1.5.2.7.1,1.6-.3,1.5-.4,1.5Z"/>
      <path class="cls-5" d="m191.9,355.07c-.2,0-.2-.7-.1-1.6s.3-1.6.4-1.5.2.7.1,1.6-.3,1.5-.4,1.5Z"/>
      <path class="cls-5" d="m191.3,361.37c-.1,0-.2-.7-.1-1.6s.3-1.6.4-1.5.2.7.1,1.6-.3,1.5-.4,1.5Z"/>
      <path class="cls-5" d="m190.6,367.67c-.1,0-.2-.7-.1-1.6s.3-1.6.4-1.5.2.7.1,1.6-.2,1.5-.4,1.5Z"/>
      <path class="cls-5" d="m190,373.97c-.1,0-.2-.7-.1-1.6s.3-1.6.4-1.5.2.7.1,1.6-.2,1.5-.4,1.5Z"/>
      <path class="cls-5" d="m189.7,377.37c-.1,0-.3-.1-.3-.1,0,0,.1-.1.3-.1s.3.1.3.1c0,0-.1.1-.3.1Z"/>
      <path class="cls-14" d="m191.8,286.17c-.6.9-1.3,1.7-2.1,2.4-.7.8-1.6,1.4-2.5,1.9,1.2-1.7,2.8-3.2,4.6-4.3Z"/>
      <path class="cls-14" d="m194.1,287.37c-1.1.8-2.3,1.4-3.5,1.9-1.2.6-2.4,1.1-3.8,1.4,1.1-.8,2.3-1.4,3.5-1.9,1.2-.7,2.5-1.1,3.8-1.4Z"/>
      <path class="cls-5" d="m127.3,215.67s-3.4-35.9-9.3-51.6l1.2-.9-1.8-6.2-22.3-2.7.3,4.8c-3.3,1.5-6,4-7.6,7.2-8,16.9-4,36.7-8.3,73.4,0,0-5,17.2.2,22.6l48.6-11.3-2.3-11.1c21.2-.4,56.1-4.3,56.1-4.3l-1-20.1c0,.1-52.1.4-53.8.2"/>
      <path class="cls-7" d="m117.3,156.97c.7,1.3,1.2,2.6,1.6,4,.2.5.4,1.1.4,1.7,0,.3-.1.6-.3.8s-.4.3-.6.4c-.8.3-1.3.1-1.3,0s.5-.1,1.1-.4c.3-.2.6-.5.6-.9-.1-.5-.3-1-.5-1.6-.4-1.2-.8-2.6-1-4Z"/>
      <path class="cls-14" d="m122.6,183.67c0,.2-9,.3-20,.3s-20-.1-20-.3,9-.3,20-.3,20,.2,20,.3Z"/>
      <path class="cls-14" d="m120.6,173.57c0,.1-7.9.3-17.7.3s-17.7-.1-17.7-.3,7.9-.3,17.7-.3,17.7.2,17.7.3Z"/>
      <path class="cls-14" d="m117.6,164.67c0,.1-6.6.3-14.7.3s-14.6-.1-14.6-.3,6.6-.3,14.6-.3,14.7.2,14.7.3Z"/>
      <path class="cls-14" d="m117.4,158.37c-3.7.3-7.5.4-11.2.3-3.7.1-7.5,0-11.2-.3,0-.1,5-.3,11.2-.3s11.2.2,11.2.3Z"/>
      <path class="cls-14" d="m124.1,193.37c0,.1-9.5.3-21.1.3s-21.1-.1-21.1-.3,9.5-.3,21.1-.3,21.1.2,21.1.3Z"/>
      <path class="cls-14" d="m125.8,203.17c0,.1-9.9.3-22,.3s-22-.1-22-.3,9.9-.3,22-.3,22,.2,22,.3Z"/>
      <path class="cls-14" d="m126.9,212.17c0,.2-10.1.3-22.6.3s-22.6-.1-22.6-.3,10.1-.3,22.6-.3,22.6.2,22.6.3Z"/>
      <path class="cls-14" d="m176.1,222.07c0,.1-21.3.3-47.6.3s-47.6-.1-47.6-.3,21.3-.3,47.6-.3,47.6.1,47.6.3Z"/>
      <path class="cls-14" d="m176.4,229.87c0,.2-21.5.3-47.9.3s-47.9-.1-47.9-.3,21.5-.3,47.9-.3,47.9.2,47.9.3Z"/>
      <path class="cls-14" d="m125.2,239.67c0,.2-10.2.3-22.9.3s-22.9-.1-22.9-.3,10.2-.3,22.9-.3,22.9.1,22.9.3Z"/>
      <path class="cls-14" d="m127.6,248.67c0,.1-11.1.3-24.9.3s-24.9-.1-24.9-.3,11.2-.3,24.9-.3,24.9.1,24.9.3Z"/>
      <path class="cls-14" d="m85.2,251.07c-.2,0-.3-17.5-.3-39.1s.1-39.1.3-39.1.3,17.5.3,39.1-.2,39.1-.3,39.1Z"/>
      <path class="cls-14" d="m97.2,250.07c-.1,0-.3-21.4-.3-47.8s.1-47.8.3-47.8.3,21.4.3,47.8-.2,47.8-.3,47.8Z"/>
      <path class="cls-14" d="m110.4,248.67c-.1,0-.3-20.6-.3-46s.1-46,.3-46,.3,20.6.3,46-.1,46-.3,46Z"/>
      <path class="cls-14" d="m121.6,250.97c-.1,0-.3-16.2-.3-36.1s.1-36.1.3-36.1.3,16.2.3,36.1-.1,36.1-.3,36.1Z"/>
      <path class="cls-14" d="m133.4,215.57c.1,1.2.2,2.3.1,3.5,0,2.2,0,5.2-.1,8.5s-.2,6.3-.3,8.5c0,1.2-.1,2.3-.3,3.5-.1-1.2-.2-2.3-.1-3.5,0-2.2,0-5.2.1-8.5s.2-6.3.3-8.5c0-1.1.1-2.3.3-3.5Z"/>
      <path class="cls-14" d="m146,216.07c.1,1.1.2,2.2.1,3.3,0,2,0,4.8-.1,7.9s-.2,5.9-.3,7.9c0,1.1-.1,2.2-.3,3.3-.1-1.1-.2-2.2-.1-3.3,0-2,0-4.8.1-7.9s.2-5.9.3-7.9c0-1.1.1-2.2.3-3.3Z"/>
      <path class="cls-14" d="m158.5,215.77c.1,1.1.2,2.1.1,3.2,0,2,0,4.7-.1,7.7s-.2,5.7-.3,7.7c0,1.1-.1,2.1-.3,3.2-.1-1.1-.2-2.1-.1-3.2,0-2,0-4.7.1-7.7s.2-5.7.3-7.7c.1-1,.1-2.1.3-3.2Z"/>
      <path class="cls-14" d="m171.1,215.47c.1,1,.2,2.1.1,3.1,0,1.9,0,4.5-.1,7.5s-.2,5.5-.3,7.5c0,1-.1,2.1-.3,3.1-.1-1-.2-2.1-.1-3.1,0-1.9,0-4.5.1-7.5s.2-5.6.3-7.5c0-1.1.1-2.1.3-3.1Z"/>
      <path class="cls-14" d="m122.9,220.17c.9-2.2,2.6-4.1,4.7-5.2-.7.9-1.5,1.8-2.4,2.6-.7.9-1.5,1.7-2.3,2.6Z"/>
      <path class="cls-14" d="m125.8,220.37c-.4-2,.3-4.2,2-5.5.1.1-.7,1.1-1.3,2.6s-.5,2.9-.7,2.9Z"/>
      <path class="cls-14" d="m177,235.47c-.6-3.2-.9-6.4-1.1-9.6-.4-3.2-.6-6.4-.6-9.6.6,3.2,1,6.4,1.1,9.6.4,3.2.6,6.4.6,9.6Z"/>
      <path class="cls-14" d="m177.6,220.07c0,.1-.3.3-.3.8,0,.3.1.5.2.7.2.2.6.3.8.1.3-.1.5-.4.5-.7s-.2-.5-.4-.7c-.4-.3-.8-.2-.8-.3s.4-.4,1,0c.4.2.6.6.7,1,0,.5-.3,1-.8,1.2s-1.1.1-1.4-.3c-.3-.3-.4-.7-.2-1.1.2-.7.7-.8.7-.7Z"/>
      <path class="cls-14" d="m127.2,215.57h.2l.7.1c.6.1,1.6.1,2.9.2,2.5.1,6.2.1,10.9.1,9.4-.1,22.9-.4,39-1h.2v.2c.3,6.2.7,13,1,20.2v.2h-.1c-2.6.5-5.1.7-7.8,1l-8.1.7c-5.5.5-11.1.9-16.9,1.3l-21.1,1.4h0c-6.1-.4-12.1-2.6-16.2-6.6-2-1.9-3.7-4.3-4.7-6.9-1-2.5-1.8-5-2.4-7.6-2.5-10-4-19.1-5.2-26.7-.6-3.8-1.1-7.2-1.5-10.2-.5-2.5-.8-5.1-.9-7.7-.1-1.6.3-3.3,1-4.7.3-.5.6-.9,1-1.3-.4.4-.7.9-.9,1.4-.7,1.5-1,3.1-.9,4.7.2,2.6.5,5.1,1,7.6.5,3,1,6.4,1.6,10.2,1.3,7.5,2.9,16.6,5.4,26.6.6,2.6,1.4,5.1,2.4,7.5,1,2.6,2.6,4.9,4.6,6.8,4,3.9,9.9,6.1,15.9,6.5h0l21.1-1.4,16.9-1.3,8.1-.7c2.6-.3,5.3-.5,7.7-.9l-.2.3c-.3-7.1-.7-14-1-20.2l.2.2c-16.1.6-29.6.9-39,.9-4.7,0-8.4-.1-10.9-.2-1.3-.1-2.2-.1-2.9-.2l-.7-.1c-.2-.4-.3-.4-.4-.4Z"/>
      <path class="cls-14" d="m127.2,215.57c-.2-.5-.4-1-.5-1.6-.3-1-.7-2.5-1.2-4.3-1-3.7-2.1-8.8-3.4-14.4s-2.4-10.8-3.3-14.4l-1-4.4c-.2-.5-.3-1.1-.3-1.6.2.5.4,1,.5,1.6.3,1,.7,2.5,1.2,4.3,1,3.7,2.2,8.8,3.5,14.4s2.3,10.7,3.2,14.4c.4,1.8.7,3.2,1,4.4.1.5.2,1.1.3,1.6Z"/>
      <path class="cls-14" d="m117.4,157.37c0,.4,0,.7-.1,1.1-.1.7-.3,1.7-.5,3-.1.7-.2,1.4-.4,2.1-.1.5-.5.8-.9,1-.4.1-.9.1-1.3,0-1.6-.3-3.4-.8-5.3-1.3-3.8-1-7.1-2.1-9.5-2.9l-2.9-.9c-.3-.1-.7-.2-1-.4.4,0,.7.1,1.1.2.7.2,1.7.4,2.9.7,2.5.6,5.8,1.7,9.6,2.7,1.9.5,3.6,1,5.3,1.3.4.1.7.1,1.1.1.3-.1.5-.4.6-.7.2-.6.3-1.4.5-2,.3-1.2.5-2.2.6-2.9,0-.3.1-.7.2-1.1Z"/>
      <polygon class="cls-14" points="99.9 295.77 106.9 390.67 109.8 389.97 108.7 297.77 99.9 295.77"/>
      <polygon class="cls-14" points="70.3 299.07 49.1 390.57 52.9 390.57 83.3 299.07 70.3 299.07"/>
      <polygon class="cls-14" points="126.4 299.07 155.4 390.57 158.5 390.57 135.5 299.07 126.4 299.07"/>
      <polygon class="cls-14" points="130.3 305.27 65.4 347.67 65.4 349.97 132.1 305.27 130.3 305.27"/>
      <polygon class="cls-14" points="75.2 305.27 145.6 352.57 145.6 348.97 77.3 303.17 75.2 305.27"/>
      <path class="cls-12" d="m60.6,300.67l83.6-1.5c3-.1,5.3-2.5,5.2-5.4v-.6h0c-.3-2.7-2.6-4.8-5.4-4.7l-84.8,1.4,1.4,10.8Z"/>
      <path class="cls-6" d="m60.6,300.67l83.6-1.5c3-.1,5.3-2.5,5.2-5.4v-.6h0c-.3-2.7-2.6-4.8-5.4-4.7l-84.8,1.4,1.4,10.8Z"/>
      <path class="cls-13" d="m52.1,236.07l8.4,64.6,65.9-1.6-.2-39.3c.1-6.1-4.8-11.1-10.8-11.2h-1.2l-50.3,4.5-6.6-68.5-6.7-.6c-2.6-.2-4.8,1.8-5,4.3v1l6.5,46.8Z"/>
    </g>
  </g>
</svg>